<svg width="284" height="212" viewBox="0 0 284 212" fill="none" xmlns="http://www.w3.org/2000/svg">
<path d="M20.9755 1.58984V214.655" stroke="#FCFDF7" stroke-width="0.657609"/>
<path d="M50.5679 1.58984V214.655" stroke="#FCFDF7" stroke-width="0.657609"/>
<path d="M80.1603 1.58984V214.655" stroke="#FCFDF7" stroke-width="0.657609"/>
<path d="M109.095 1.58984V214.655" stroke="#FCFDF7" stroke-width="0.657609"/>
<path d="M138.688 1.58984V214.655" stroke="#FCFDF7" stroke-width="0.657609"/>
<path d="M168.28 1.58984V214.655" stroke="#FCFDF7" stroke-width="0.657609"/>
<path d="M197.872 1.58984V214.655" stroke="#FCFDF7" stroke-width="0.657609"/>
<path d="M227.465 1.58984V214.655" stroke="#FCFDF7" stroke-width="0.657609"/>
<path d="M257.057 1.58984V214.655" stroke="#FCFDF7" stroke-width="0.657609"/>
<path d="M21.3043 172.239H448.75" stroke="#FCFDF7" stroke-width="0.657609"/>
<path d="M21.3043 129.495H448.75" stroke="#FCFDF7" stroke-width="0.657609"/>
<path d="M21.3043 87.4077H448.75" stroke="#FCFDF7" stroke-width="0.657609"/>
<path d="M21.3043 44.6631H448.75" stroke="#FCFDF7" stroke-width="0.657609"/>
<path d="M21.3043 1.26099H448.75" stroke="#FCFDF7" stroke-width="0.657609"/>
<path d="M20.9755 1.58984V214.655" stroke="#FCFDF7" stroke-width="0.657609"/>
<path d="M20.6467 115.537C20.6467 115.537 30.148 147.113 36.0438 153.591C41.9396 160.068 44.8875 160.068 50.7833 160.068C56.6791 160.068 59.6271 69.856 65.5229 48.4217C71.4187 26.9873 74.3666 26.9873 80.2624 26.9873C86.1582 26.9873 89.1061 26.9873 95.0019 33.9332C100.898 40.8792 103.846 182.823 109.741 182.823C115.637 182.823 118.585 174.147 124.481 169.485C130.377 164.823 133.325 169.485 139.22 159.514C145.116 149.542 148.064 127.068 153.96 112.81C159.856 98.5517 162.804 88.2222 168.699 88.2222C174.595 88.2222 177.543 88.2222 183.439 105.395C189.335 122.568 192.283 175.962 198.178 175.962C204.074 175.962 207.022 175.963 212.918 163.179C218.814 150.395 221.762 45.9927 227.657 45.9927C233.553 45.9927 236.501 45.9927 242.397 46.8876C248.293 47.7825 251.241 88.6058 257.136 96.063C263.032 103.52 265.98 96.063 271.876 103.52C277.772 110.978 280.72 160.366 286.615 160.366C292.511 160.366 295.459 32.9531 301.355 32.9531C307.251 32.9531 310.199 32.9531 316.094 48.4217C321.99 63.8902 324.938 84.0973 330.834 115.537C336.73 146.977 339.678 205.621 345.573 205.621C351.469 205.621 354.417 90.6086 360.313 90.6086C366.209 90.6086 369.157 121.503 375.052 121.503C380.948 121.503 383.896 56.5608 389.792 56.5608C395.688 56.5608 398.636 133.58 404.531 161.176C410.427 188.772 413.375 194.542 419.271 194.542C425.167 194.542 428.115 114.361 434.01 84.2592C439.906 54.1574 448.75 44.0325 448.75 44.0325" stroke="#002106" stroke-width="1.31522"/>
<path d="M21.3043 118.315C20.6068 118.315 19.9378 118.038 19.4446 117.545C18.9513 117.052 18.6741 116.383 18.6739 115.686C18.6737 114.988 18.9506 114.319 19.4436 113.826C19.9367 113.332 20.6055 113.055 21.303 113.054C22.0005 113.054 22.6696 113.331 23.1632 113.824C23.6567 114.317 23.9342 114.985 23.9348 115.683C23.9353 116.38 23.6587 117.05 23.1659 117.543C22.6732 118.037 22.0045 118.315 21.307 118.315L21.3043 118.315Z" fill="#002106"/>
<path d="M35.7718 156.128C35.0743 156.128 34.4053 155.851 33.912 155.358C33.4187 154.864 33.1415 154.196 33.1413 153.498C33.1412 152.801 33.418 152.131 33.9111 151.638C34.4041 151.145 35.0729 150.867 35.7705 150.867C36.468 150.867 37.1371 151.143 37.6306 151.636C38.1241 152.129 38.4017 152.798 38.4022 153.495C38.4027 154.193 38.1262 154.862 37.6334 155.356C37.1406 155.849 36.4719 156.127 35.7744 156.128H35.7718Z" fill="#002106"/>
<path d="M50.2391 162.704C49.5416 162.704 48.8726 162.427 48.3793 161.934C47.8861 161.441 47.6088 160.772 47.6087 160.074C47.6085 159.377 47.8854 158.708 48.3784 158.214C48.8714 157.721 49.5403 157.443 50.2378 157.443C50.9353 157.443 51.6044 157.719 52.0979 158.212C52.5915 158.705 52.869 159.374 52.8695 160.072C52.8701 160.769 52.5935 161.438 52.1007 161.932C51.6079 162.426 50.9393 162.703 50.2417 162.704H50.2391Z" fill="#002106"/>
<path d="M65.3642 50.9105C64.6666 50.9105 63.9977 50.6335 63.5044 50.1403C63.0111 49.6472 62.7339 48.9783 62.7337 48.2808C62.7336 47.5832 63.0104 46.9142 63.5035 46.4208C63.9965 45.9274 64.6653 45.65 65.3629 45.6497C66.0604 45.6493 66.7295 45.926 67.223 46.4189C67.7165 46.9118 67.9941 47.5806 67.9946 48.2781C67.9951 48.9756 67.7186 49.6448 67.2258 50.1385C66.733 50.6321 66.0643 50.9098 65.3668 50.9105H65.3642Z" fill="#002106"/>
<path d="M79.8315 29.8671C79.134 29.8671 78.465 29.59 77.9717 29.0969C77.4785 28.6037 77.2012 27.9348 77.2011 27.2373C77.2009 26.5398 77.4778 25.8707 77.9708 25.3773C78.4638 24.8839 79.1327 24.6066 79.8302 24.6062C80.5277 24.6059 81.1968 24.8826 81.6903 25.3755C82.1839 25.8684 82.4614 26.5371 82.4619 27.2347C82.4625 27.9322 82.1859 28.6014 81.6931 29.095C81.2003 29.5887 80.5316 29.8664 79.8341 29.8671L79.8315 29.8671Z" fill="#002106"/>
<path d="M94.9566 36.443C94.259 36.443 93.5901 36.166 93.0968 35.6728C92.6035 35.1796 92.3263 34.5107 92.3261 33.8132C92.326 33.1157 92.6028 32.4467 93.0959 31.9533C93.5889 31.4599 94.2577 31.1825 94.9552 31.1821C95.6528 31.1818 96.3219 31.4585 96.8154 31.9514C97.3089 32.4443 97.5865 33.1131 97.587 33.8106C97.5875 34.5081 97.311 35.1773 96.8182 35.6709C96.3254 36.1646 95.6567 36.4423 94.9592 36.443L94.9566 36.443Z" fill="#002106"/>
<path d="M109.424 185.72C108.726 185.72 108.057 185.443 107.564 184.95C107.071 184.457 106.794 183.788 106.793 183.091C106.793 182.393 107.07 181.724 107.563 181.231C108.056 180.737 108.725 180.46 109.423 180.459C110.12 180.459 110.789 180.736 111.283 181.229C111.776 181.722 112.054 182.39 112.054 183.088C112.055 183.785 111.778 184.455 111.286 184.948C110.793 185.442 110.124 185.72 109.427 185.72H109.424Z" fill="#002106"/>
<path d="M123.891 171.911C123.194 171.911 122.525 171.633 122.032 171.14C121.538 170.647 121.261 169.978 121.261 169.281C121.261 168.583 121.538 167.914 122.031 167.421C122.524 166.927 123.193 166.65 123.89 166.65C124.588 166.649 125.257 166.926 125.75 167.419C126.244 167.912 126.521 168.581 126.522 169.278C126.522 169.976 126.246 170.645 125.753 171.138C125.26 171.632 124.592 171.91 123.894 171.911H123.891Z" fill="#002106"/>
<path d="M139.016 162.046C138.319 162.046 137.65 161.769 137.157 161.276C136.663 160.783 136.386 160.114 136.386 159.416C136.386 158.719 136.663 158.05 137.156 157.557C137.649 157.063 138.317 156.786 139.015 156.785C139.713 156.785 140.382 157.062 140.875 157.555C141.369 158.048 141.646 158.716 141.647 159.414C141.647 160.111 141.371 160.781 140.878 161.274C140.385 161.768 139.716 162.046 139.019 162.046H139.016Z" fill="#002106"/>
<path d="M153.484 115.356C152.786 115.356 152.117 115.079 151.624 114.586C151.131 114.093 150.853 113.424 150.853 112.726C150.853 112.029 151.13 111.36 151.623 110.866C152.116 110.373 152.785 110.096 153.482 110.095C154.18 110.095 154.849 110.372 155.343 110.864C155.836 111.357 156.114 112.026 156.114 112.724C156.115 113.421 155.838 114.09 155.345 114.584C154.853 115.078 154.184 115.355 153.486 115.356H153.484Z" fill="#002106"/>
<path d="M168.609 91.0245C167.911 91.0245 167.242 90.7475 166.749 90.2543C166.256 89.7612 165.978 89.0923 165.978 88.3948C165.978 87.6972 166.255 87.0282 166.748 86.5348C167.241 86.0414 167.91 85.764 168.607 85.7637C169.305 85.7633 169.974 86.04 170.468 86.5329C170.961 87.0259 171.239 87.6946 171.239 88.3921C171.24 89.0897 170.963 89.7588 170.47 90.2525C169.978 90.7461 169.309 91.0238 168.611 91.0245H168.609Z" fill="#002106"/>
<path d="M183.076 108.122C182.379 108.122 181.71 107.845 181.216 107.352C180.723 106.859 180.446 106.19 180.446 105.493C180.446 104.795 180.722 104.126 181.215 103.633C181.708 103.139 182.377 102.862 183.075 102.862C183.772 102.861 184.441 103.138 184.935 103.631C185.428 104.124 185.706 104.793 185.707 105.49C185.707 106.188 185.431 106.857 184.938 107.35C184.445 107.844 183.776 108.122 183.079 108.122H183.076Z" fill="#002106"/>
<path d="M197.543 178.486C196.846 178.486 196.177 178.209 195.684 177.716C195.19 177.223 194.913 176.554 194.913 175.857C194.913 175.159 195.19 174.49 195.683 173.997C196.176 173.503 196.845 173.226 197.542 173.226C198.24 173.225 198.909 173.502 199.402 173.995C199.896 174.488 200.173 175.157 200.174 175.854C200.174 176.552 199.898 177.221 199.405 177.714C198.912 178.208 198.244 178.486 197.546 178.486H197.543Z" fill="#002106"/>
<path d="M212.669 165.992C211.971 165.992 211.302 165.715 210.809 165.222C210.315 164.728 210.038 164.06 210.038 163.362C210.038 162.665 210.315 161.996 210.808 161.502C211.301 161.009 211.97 160.731 212.667 160.731C213.365 160.731 214.034 161.007 214.527 161.5C215.021 161.993 215.298 162.662 215.299 163.359C215.299 164.057 215.023 164.726 214.53 165.22C214.037 165.713 213.369 165.991 212.671 165.992H212.669Z" fill="#002106"/>
<path d="M227.136 48.9376C226.438 48.9376 225.769 48.6606 225.276 48.1674C224.783 47.6743 224.506 47.0054 224.505 46.3079C224.505 45.6103 224.782 44.9413 225.275 44.4479C225.768 43.9545 226.437 43.6771 227.135 43.6768C227.832 43.6764 228.501 43.9531 228.995 44.446C229.488 44.9389 229.766 45.6077 229.766 46.3052C229.767 47.0027 229.49 47.6719 228.997 48.1656C228.505 48.6592 227.836 48.9369 227.138 48.9376H227.136Z" fill="#002106"/>
<path d="M242.261 49.5953C241.563 49.5953 240.894 49.3183 240.401 48.8251C239.908 48.332 239.631 47.6631 239.63 46.9656C239.63 46.268 239.907 45.599 240.4 45.1056C240.893 44.6122 241.562 44.3348 242.26 44.3345C242.957 44.3341 243.626 44.6108 244.12 45.1037C244.613 45.5967 244.891 46.2654 244.891 46.9629C244.892 47.6605 244.615 48.3296 244.123 48.8233C243.63 49.3169 242.961 49.5946 242.264 49.5953H242.261Z" fill="#002106"/>
<path d="M256.728 98.9159C256.031 98.9159 255.362 98.6389 254.868 98.1457C254.375 97.6525 254.098 96.9836 254.098 96.2861C254.098 95.5886 254.375 94.9196 254.868 94.4262C255.361 93.9328 256.029 93.6554 256.727 93.655C257.424 93.6547 258.094 93.9314 258.587 94.4243C259.081 94.9172 259.358 95.586 259.359 96.2835C259.359 96.981 259.083 97.6502 258.59 98.1438C258.097 98.6375 257.428 98.9152 256.731 98.9159H256.728Z" fill="#002106"/>
<path d="M271.853 106.15C271.156 106.15 270.487 105.872 269.994 105.379C269.5 104.886 269.223 104.217 269.223 103.52C269.223 102.822 269.5 102.153 269.993 101.66C270.486 101.166 271.154 100.889 271.852 100.889C272.55 100.888 273.219 101.165 273.712 101.658C274.206 102.151 274.483 102.82 274.484 103.517C274.484 104.215 274.208 104.884 273.715 105.377C273.222 105.871 272.553 106.149 271.856 106.15H271.853Z" fill="#002106"/>
<path d="M286.321 162.704C285.623 162.704 284.954 162.427 284.461 161.934C283.968 161.441 283.69 160.772 283.69 160.074C283.69 159.377 283.967 158.708 284.46 158.214C284.953 157.721 285.622 157.443 286.319 157.443C287.017 157.443 287.686 157.719 288.179 158.212C288.673 158.705 288.951 159.374 288.951 160.072C288.952 160.769 288.675 161.438 288.182 161.932C287.689 162.426 287.021 162.703 286.323 162.704H286.321Z" fill="#002106"/>
</svg>
