<svg width="309" height="196" viewBox="0 0 309 196" fill="none" xmlns="http://www.w3.org/2000/svg">
<path opacity="0.5" d="M20.9753 1.58936V214.655" stroke="#FCFDF7" stroke-width="0.657609"/>
<path opacity="0.5" d="M50.5679 1.58936V214.655" stroke="#FCFDF7" stroke-width="0.657609"/>
<path opacity="0.5" d="M80.1602 1.58936V214.655" stroke="#FCFDF7" stroke-width="0.657609"/>
<path opacity="0.5" d="M109.095 1.58936V214.655" stroke="#FCFDF7" stroke-width="0.657609"/>
<path opacity="0.5" d="M138.687 1.58936V214.655" stroke="#FCFDF7" stroke-width="0.657609"/>
<path opacity="0.5" d="M168.28 1.58936V214.655" stroke="#FCFDF7" stroke-width="0.657609"/>
<path opacity="0.5" d="M197.872 1.58936V214.655" stroke="#FCFDF7" stroke-width="0.657609"/>
<path opacity="0.5" d="M227.465 1.58936V214.655" stroke="#FCFDF7" stroke-width="0.657609"/>
<path opacity="0.5" d="M257.057 1.58936V214.655" stroke="#FCFDF7" stroke-width="0.657609"/>
<path opacity="0.5" d="M285.992 1.58936V214.655" stroke="#FCFDF7" stroke-width="0.657609"/>
<path opacity="0.5" d="M21.3042 172.239H448.75" stroke="#FCFDF7" stroke-width="0.657609"/>
<path opacity="0.5" d="M21.3042 129.495H448.75" stroke="#FCFDF7" stroke-width="0.657609"/>
<path opacity="0.5" d="M21.3042 87.4077H448.75" stroke="#FCFDF7" stroke-width="0.657609"/>
<path opacity="0.5" d="M21.3042 44.6631H448.75" stroke="#FCFDF7" stroke-width="0.657609"/>
<path opacity="0.5" d="M21.3042 1.26074H448.75" stroke="#FCFDF7" stroke-width="0.657609"/>
<path opacity="0.5" d="M20.9753 1.58936V214.655" stroke="#FCFDF7" stroke-width="0.657609"/>
<path opacity="0.3" d="M20.6465 115.537C20.6465 115.537 30.1478 147.113 36.0436 153.59C41.9394 160.067 44.8873 160.067 50.7831 160.067C56.6789 160.067 59.6268 69.8555 65.5226 48.4212C71.4184 26.9868 74.3663 26.9868 80.2621 26.9868C86.1579 26.9868 89.1058 26.9868 95.0016 33.9327C100.897 40.8787 103.845 182.823 109.741 182.823C115.637 182.823 118.585 174.147 124.481 169.485C130.376 164.823 133.324 169.485 139.22 159.513C145.116 149.542 148.064 127.068 153.96 112.809C159.855 98.5512 162.803 88.2218 168.699 88.2218C174.595 88.2218 177.543 88.2218 183.439 105.395C189.334 122.568 192.282 175.962 198.178 175.962C204.074 175.962 207.022 175.962 212.918 163.178C218.813 150.394 221.761 45.9922 227.657 45.9922C233.553 45.9922 236.501 45.9922 242.397 46.8871C248.292 47.782 251.24 88.6053 257.136 96.0626C263.032 103.52 265.98 96.0626 271.876 103.52C277.771 110.977 280.719 160.366 286.615 160.366C292.511 160.366 295.459 32.9526 301.355 32.9526C307.25 32.9526 310.198 32.9526 316.094 48.4212C321.99 63.8897 324.938 84.0968 330.834 115.537C336.73 146.977 339.677 205.621 345.573 205.621C351.469 205.621 354.417 90.6081 360.313 90.6081C366.208 90.6081 369.156 121.503 375.052 121.503C380.948 121.503 383.896 56.5603 389.792 56.5603C395.688 56.5603 398.635 133.579 404.531 161.175C410.427 188.771 413.375 194.541 419.271 194.541C425.167 194.541 428.114 114.361 434.01 84.2587C439.906 54.1569 448.75 44.032 448.75 44.032" stroke="white" stroke-width="1.31522"/>
<path opacity="0.3" d="M21.3043 118.315C20.6067 118.315 19.9378 118.038 19.4445 117.545C18.9512 117.052 18.674 116.383 18.6738 115.685C18.6737 114.988 18.9505 114.319 19.4436 113.825C19.9366 113.332 20.6054 113.055 21.3029 113.054C22.0005 113.054 22.6696 113.331 23.1631 113.823C23.6566 114.316 23.9342 114.985 23.9347 115.683C23.9352 116.38 23.6587 117.049 23.1659 117.543C22.6731 118.037 22.0044 118.314 21.3069 118.315L21.3043 118.315Z" fill="white"/>
<path opacity="0.3" d="M35.7715 156.128C35.074 156.128 34.4051 155.851 33.9118 155.357C33.4185 154.864 33.1413 154.195 33.1411 153.498C33.1409 152.8 33.4178 152.131 33.9109 151.638C34.4039 151.144 35.0727 150.867 35.7702 150.867C36.4678 150.866 37.1369 151.143 37.6304 151.636C38.1239 152.129 38.4015 152.798 38.402 153.495C38.4025 154.193 38.126 154.862 37.6332 155.356C37.1404 155.849 36.4717 156.127 35.7742 156.128H35.7715Z" fill="white"/>
<path opacity="0.3" d="M50.2391 162.704C49.5416 162.704 48.8726 162.427 48.3793 161.934C47.886 161.44 47.6088 160.771 47.6086 160.074C47.6085 159.376 47.8853 158.707 48.3784 158.214C48.8714 157.721 49.5402 157.443 50.2378 157.443C50.9353 157.443 51.6044 157.719 52.0979 158.212C52.5914 158.705 52.869 159.374 52.8695 160.071C52.87 160.769 52.5935 161.438 52.1007 161.932C51.6079 162.425 50.9392 162.703 50.2417 162.704H50.2391Z" fill="white"/>
<path opacity="0.3" d="M65.3641 50.9103C64.6666 50.9103 63.9976 50.6332 63.5043 50.1401C63.011 49.6469 62.7338 48.978 62.7336 48.2805C62.7335 47.583 63.0103 46.914 63.5034 46.4205C63.9964 45.9271 64.6652 45.6498 65.3628 45.6494C66.0603 45.6491 66.7294 45.9258 67.2229 46.4187C67.7164 46.9116 67.994 47.5804 67.9945 48.2779C67.995 48.9754 67.7185 49.6446 67.2257 50.1382C66.7329 50.6319 66.0642 50.9096 65.3667 50.9103H65.3641Z" fill="white"/>
<path opacity="0.3" d="M79.8314 29.8668C79.1338 29.8668 78.4649 29.5898 77.9716 29.0966C77.4783 28.6035 77.2011 27.9346 77.2009 27.237C77.2008 26.5395 77.4776 25.8705 77.9707 25.3771C78.4637 24.8837 79.1325 24.6063 79.83 24.606C80.5276 24.6056 81.1967 24.8823 81.6902 25.3752C82.1837 25.8681 82.4613 26.5369 82.4618 27.2344C82.4623 27.9319 82.1858 28.6011 81.693 29.0948C81.2002 29.5884 80.5315 29.8661 79.834 29.8668L79.8314 29.8668Z" fill="white"/>
<path opacity="0.3" d="M94.9564 36.443C94.2588 36.443 93.5899 36.166 93.0966 35.6728C92.6033 35.1796 92.3261 34.5107 92.3259 33.8132C92.3258 33.1157 92.6026 32.4467 93.0957 31.9533C93.5887 31.4599 94.2575 31.1825 94.955 31.1821C95.6526 31.1818 96.3217 31.4585 96.8152 31.9514C97.3087 32.4443 97.5863 33.1131 97.5868 33.8106C97.5873 34.5081 97.3108 35.1773 96.818 35.6709C96.3252 36.1646 95.6565 36.4423 94.959 36.443L94.9564 36.443Z" fill="white"/>
<path opacity="0.3" d="M109.424 185.72C108.726 185.72 108.057 185.443 107.564 184.95C107.071 184.456 106.794 183.788 106.793 183.09C106.793 182.393 107.07 181.724 107.563 181.23C108.056 180.737 108.725 180.459 109.423 180.459C110.12 180.459 110.789 180.735 111.283 181.228C111.776 181.721 112.054 182.39 112.054 183.087C112.055 183.785 111.778 184.454 111.286 184.948C110.793 185.441 110.124 185.719 109.427 185.72H109.424Z" fill="white"/>
<path opacity="0.3" d="M123.891 171.91C123.194 171.91 122.525 171.633 122.031 171.14C121.538 170.647 121.261 169.978 121.261 169.281C121.261 168.583 121.537 167.914 122.03 167.421C122.524 166.927 123.192 166.65 123.89 166.649C124.587 166.649 125.256 166.926 125.75 167.419C126.244 167.912 126.521 168.58 126.522 169.278C126.522 169.975 126.246 170.645 125.753 171.138C125.26 171.632 124.591 171.91 123.894 171.91H123.891Z" fill="white"/>
<path opacity="0.3" d="M139.016 162.046C138.319 162.046 137.65 161.769 137.156 161.276C136.663 160.783 136.386 160.114 136.386 159.416C136.386 158.719 136.662 158.05 137.155 157.556C137.649 157.063 138.317 156.786 139.015 156.785C139.712 156.785 140.381 157.062 140.875 157.554C141.369 158.047 141.646 158.716 141.647 159.414C141.647 160.111 141.371 160.78 140.878 161.274C140.385 161.768 139.716 162.045 139.019 162.046H139.016Z" fill="white"/>
<path opacity="0.3" d="M153.484 115.356C152.786 115.356 152.117 115.079 151.624 114.586C151.131 114.093 150.853 113.424 150.853 112.726C150.853 112.029 151.13 111.36 151.623 110.866C152.116 110.373 152.785 110.096 153.482 110.095C154.18 110.095 154.849 110.372 155.343 110.864C155.836 111.357 156.114 112.026 156.114 112.724C156.115 113.421 155.838 114.09 155.345 114.584C154.853 115.078 154.184 115.355 153.486 115.356H153.484Z" fill="white"/>
<path opacity="0.3" d="M168.608 91.0245C167.911 91.0245 167.242 90.7475 166.749 90.2543C166.255 89.7612 165.978 89.0923 165.978 88.3948C165.978 87.6972 166.255 87.0282 166.748 86.5348C167.241 86.0414 167.91 85.764 168.607 85.7637C169.305 85.7633 169.974 86.04 170.467 86.5329C170.961 87.0259 171.238 87.6946 171.239 88.3921C171.239 89.0897 170.963 89.7588 170.47 90.2525C169.977 90.7461 169.309 91.0238 168.611 91.0245H168.608Z" fill="white"/>
<path opacity="0.3" d="M183.076 108.122C182.378 108.122 181.71 107.845 181.216 107.352C180.723 106.859 180.446 106.19 180.446 105.492C180.445 104.795 180.722 104.126 181.215 103.632C181.708 103.139 182.377 102.862 183.075 102.861C183.772 102.861 184.441 103.138 184.935 103.631C185.428 104.124 185.706 104.792 185.706 105.49C185.707 106.187 185.43 106.856 184.938 107.35C184.445 107.844 183.776 108.122 183.079 108.122H183.076Z" fill="white"/>
<path opacity="0.3" d="M197.543 178.486C196.846 178.486 196.177 178.209 195.684 177.716C195.19 177.223 194.913 176.554 194.913 175.857C194.913 175.159 195.19 174.49 195.683 173.997C196.176 173.503 196.844 173.226 197.542 173.226C198.239 173.225 198.909 173.502 199.402 173.995C199.896 174.488 200.173 175.157 200.174 175.854C200.174 176.552 199.898 177.221 199.405 177.714C198.912 178.208 198.243 178.486 197.546 178.486H197.543Z" fill="white"/>
<path opacity="0.3" d="M212.669 165.992C211.971 165.992 211.302 165.715 210.809 165.222C210.315 164.728 210.038 164.06 210.038 163.362C210.038 162.665 210.315 161.996 210.808 161.502C211.301 161.009 211.97 160.731 212.667 160.731C213.365 160.731 214.034 161.007 214.527 161.5C215.021 161.993 215.298 162.662 215.299 163.359C215.299 164.057 215.023 164.726 214.53 165.22C214.037 165.713 213.369 165.991 212.671 165.992H212.669Z" fill="white"/>
<path opacity="0.3" d="M227.136 48.9371C226.438 48.9371 225.769 48.6601 225.276 48.1669C224.783 47.6738 224.506 47.0049 224.505 46.3074C224.505 45.6098 224.782 44.9408 225.275 44.4474C225.768 43.954 226.437 43.6766 227.134 43.6763C227.832 43.6759 228.501 43.9526 228.995 44.4455C229.488 44.9385 229.766 45.6072 229.766 46.3047C229.767 47.0023 229.49 47.6714 228.997 48.1651C228.505 48.6587 227.836 48.9364 227.138 48.9371H227.136Z" fill="white"/>
<path opacity="0.3" d="M242.261 49.5949C241.563 49.5949 240.894 49.3178 240.401 48.8247C239.908 48.3315 239.631 47.6626 239.63 46.9651C239.63 46.2676 239.907 45.5985 240.4 45.1051C240.893 44.6117 241.562 44.3343 242.259 44.334C242.957 44.3336 243.626 44.6103 244.12 45.1033C244.613 45.5962 244.891 46.2649 244.891 46.9624C244.892 47.66 244.615 48.3291 244.122 48.8228C243.63 49.3164 242.961 49.5942 242.263 49.5949H242.261Z" fill="white"/>
<path opacity="0.3" d="M256.728 98.9157C256.031 98.9157 255.362 98.6386 254.868 98.1455C254.375 97.6523 254.098 96.9834 254.098 96.2859C254.097 95.5884 254.374 94.9193 254.867 94.4259C255.36 93.9325 256.029 93.6551 256.727 93.6548C257.424 93.6544 258.093 93.9311 258.587 94.4241C259.08 94.917 259.358 95.5857 259.359 96.2832C259.359 96.9808 259.083 97.6499 258.59 98.1436C258.097 98.6372 257.428 98.915 256.731 98.9157H256.728Z" fill="white"/>
<path opacity="0.3" d="M271.853 106.15C271.156 106.15 270.487 105.872 269.993 105.379C269.5 104.886 269.223 104.217 269.223 103.52C269.222 102.822 269.499 102.153 269.992 101.66C270.485 101.166 271.154 100.889 271.852 100.889C272.549 100.888 273.218 101.165 273.712 101.658C274.205 102.151 274.483 102.82 274.484 103.517C274.484 104.215 274.208 104.884 273.715 105.377C273.222 105.871 272.553 106.149 271.856 106.15H271.853Z" fill="white"/>
<path opacity="0.3" d="M286.32 162.704C285.623 162.704 284.954 162.427 284.461 161.934C283.967 161.44 283.69 160.771 283.69 160.074C283.69 159.376 283.967 158.707 284.46 158.214C284.953 157.721 285.622 157.443 286.319 157.443C287.017 157.443 287.686 157.719 288.179 158.212C288.673 158.705 288.95 159.374 288.951 160.071C288.951 160.769 288.675 161.438 288.182 161.932C287.689 162.425 287.021 162.703 286.323 162.704H286.32Z" fill="white"/>
<path opacity="0.3" d="M300.788 35.7853C300.09 35.7853 299.421 35.5082 298.928 35.0151C298.435 34.5219 298.158 33.853 298.157 33.1555C298.157 32.458 298.434 31.789 298.927 31.2955C299.42 30.8021 300.089 30.5248 300.787 30.5244C301.484 30.5241 302.153 30.8008 302.647 31.2937C303.14 31.7866 303.418 32.4554 303.418 33.1529C303.419 33.8504 303.142 34.5196 302.65 35.0132C302.157 35.5069 301.488 35.7846 300.791 35.7853L300.788 35.7853Z" fill="white"/>
</svg>
