<svg width="188" height="192" viewBox="0 0 188 192" fill="none" xmlns="http://www.w3.org/2000/svg">
<g opacity="0.4">
<path opacity="0.5" d="M25.9756 5.58984V218.655" stroke="#FCFDF7" stroke-width="0.657609"/>
<path opacity="0.5" d="M55.5679 5.58984V218.655" stroke="#FCFDF7" stroke-width="0.657609"/>
<path opacity="0.5" d="M85.1603 5.58984V218.655" stroke="#FCFDF7" stroke-width="0.657609"/>
<path opacity="0.5" d="M114.095 5.58984V218.655" stroke="#FCFDF7" stroke-width="0.657609"/>
<path opacity="0.5" d="M143.688 5.58984V218.655" stroke="#FCFDF7" stroke-width="0.657609"/>
<path opacity="0.5" d="M173.28 5.58984V218.655" stroke="#FCFDF7" stroke-width="0.657609"/>
<path opacity="0.5" d="M26.3043 176.239H453.75" stroke="#FCFDF7" stroke-width="0.657609"/>
<path opacity="0.5" d="M26.3043 133.495H453.75" stroke="#FCFDF7" stroke-width="0.657609"/>
<path opacity="0.5" d="M26.3043 91.4077H453.75" stroke="#FCFDF7" stroke-width="0.657609"/>
<path opacity="0.5" d="M26.3043 48.6631H453.75" stroke="#FCFDF7" stroke-width="0.657609"/>
<path opacity="0.5" d="M26.3043 5.26099H453.75" stroke="#FCFDF7" stroke-width="0.657609"/>
<path opacity="0.5" d="M25.9756 5.58984V218.655" stroke="#FCFDF7" stroke-width="0.657609"/>
<path opacity="0.3" d="M25.6467 119.537C25.6467 119.537 35.148 151.113 41.0438 157.591C46.9396 164.068 49.8875 164.068 55.7833 164.068C61.6791 164.068 64.6271 73.856 70.5229 52.4217C76.4187 30.9873 79.3666 30.9873 85.2624 30.9873C91.1582 30.9873 94.1061 30.9873 100.002 37.9332C105.898 44.8792 108.846 186.823 114.741 186.823C120.637 186.823 123.585 178.147 129.481 173.485C135.377 168.823 138.325 173.485 144.22 163.514C150.116 153.542 153.064 131.068 158.96 116.81C164.856 102.552 167.804 92.2222 173.699 92.2222C179.595 92.2222 182.543 92.2222 188.439 109.395C194.335 126.568 197.283 179.962 203.178 179.962C209.074 179.962 212.022 179.963 217.918 167.179C223.814 154.395 226.762 49.9927 232.657 49.9927C238.553 49.9927 241.501 49.9927 247.397 50.8876C253.293 51.7825 256.241 92.6058 262.136 100.063C268.032 107.52 270.98 100.063 276.876 107.52C282.772 114.978 285.72 164.366 291.615 164.366C297.511 164.366 300.459 36.9531 306.355 36.9531C312.251 36.9531 315.199 36.9531 321.094 52.4217C326.99 67.8902 329.938 88.0973 335.834 119.537C341.73 150.977 344.678 209.621 350.573 209.621C356.469 209.621 359.417 94.6086 365.313 94.6086C371.209 94.6086 374.157 125.503 380.052 125.503C385.948 125.503 388.896 60.5608 394.792 60.5608C400.688 60.5608 403.636 137.58 409.531 165.176C415.427 192.772 418.375 198.542 424.271 198.542C430.167 198.542 433.115 118.361 439.01 88.2592C444.906 58.1574 453.75 48.0325 453.75 48.0325" stroke="white" stroke-width="1.31522"/>
<path opacity="0.3" d="M26.3043 122.315C25.6067 122.315 24.9378 122.038 24.4445 121.545C23.9512 121.052 23.674 120.383 23.6738 119.686C23.6737 118.988 23.9505 118.319 24.4436 117.826C24.9366 117.332 25.6054 117.055 26.3029 117.054C27.0005 117.054 27.6696 117.331 28.1631 117.824C28.6566 118.317 28.9342 118.985 28.9347 119.683C28.9352 120.38 28.6587 121.05 28.1659 121.543C27.6731 122.037 27.0044 122.315 26.3069 122.315L26.3043 122.315Z" fill="white"/>
<path opacity="0.3" d="M40.7718 160.128C40.0743 160.128 39.4053 159.851 38.912 159.358C38.4187 158.864 38.1415 158.196 38.1414 157.498C38.1412 156.801 38.4181 156.131 38.9111 155.638C39.4041 155.145 40.073 154.867 40.7705 154.867C41.468 154.867 42.1371 155.143 42.6306 155.636C43.1242 156.129 43.4017 156.798 43.4022 157.495C43.4027 158.193 43.1262 158.862 42.6334 159.356C42.1406 159.849 41.4719 160.127 40.7744 160.128H40.7718Z" fill="white"/>
<path opacity="0.3" d="M55.2391 166.704C54.5416 166.704 53.8726 166.427 53.3793 165.934C52.886 165.441 52.6088 164.772 52.6086 164.074C52.6085 163.377 52.8853 162.708 53.3784 162.214C53.8714 161.721 54.5402 161.443 55.2378 161.443C55.9353 161.443 56.6044 161.719 57.0979 162.212C57.5914 162.705 57.869 163.374 57.8695 164.072C57.87 164.769 57.5935 165.438 57.1007 165.932C56.6079 166.426 55.9392 166.703 55.2417 166.704H55.2391Z" fill="white"/>
<path opacity="0.3" d="M70.3642 54.9105C69.6667 54.9105 68.9977 54.6335 68.5044 54.1403C68.0112 53.6472 67.7339 52.9783 67.7338 52.2808C67.7336 51.5832 68.0105 50.9142 68.5035 50.4208C68.9965 49.9274 69.6654 49.65 70.3629 49.6497C71.0604 49.6493 71.7295 49.926 72.223 50.4189C72.7166 50.9118 72.9941 51.5806 72.9946 52.2781C72.9952 52.9756 72.7186 53.6448 72.2258 54.1385C71.733 54.6321 71.0643 54.9098 70.3668 54.9105H70.3642Z" fill="white"/>
<path opacity="0.3" d="M84.8315 33.8671C84.134 33.8671 83.465 33.59 82.9717 33.0969C82.4784 32.6037 82.2012 31.9348 82.201 31.2373C82.2009 30.5398 82.4778 29.8707 82.9708 29.3773C83.4638 28.8839 84.1326 28.6066 84.8302 28.6062C85.5277 28.6059 86.1968 28.8826 86.6903 29.3755C87.1839 29.8684 87.4614 30.5371 87.4619 31.2347C87.4624 31.9322 87.1859 32.6014 86.6931 33.095C86.2003 33.5887 85.5316 33.8664 84.8341 33.8671L84.8315 33.8671Z" fill="white"/>
<path opacity="0.3" d="M99.9566 40.443C99.2591 40.443 98.5901 40.166 98.0968 39.6728C97.6036 39.1796 97.3263 38.5107 97.3262 37.8132C97.326 37.1157 97.6029 36.4467 98.0959 35.9533C98.5889 35.4599 99.2578 35.1825 99.9553 35.1821C100.653 35.1818 101.322 35.4585 101.815 35.9514C102.309 36.4443 102.587 37.1131 102.587 37.8106C102.588 38.5081 102.311 39.1773 101.818 39.6709C101.325 40.1646 100.657 40.4423 99.9592 40.443L99.9566 40.443Z" fill="white"/>
<path opacity="0.3" d="M114.424 189.72C113.726 189.72 113.057 189.443 112.564 188.95C112.071 188.457 111.794 187.788 111.793 187.091C111.793 186.393 112.07 185.724 112.563 185.231C113.056 184.737 113.725 184.46 114.423 184.459C115.12 184.459 115.789 184.736 116.283 185.229C116.776 185.722 117.054 186.39 117.054 187.088C117.055 187.785 116.778 188.455 116.286 188.948C115.793 189.442 115.124 189.72 114.427 189.72H114.424Z" fill="white"/>
<path opacity="0.3" d="M128.891 175.911C128.194 175.911 127.525 175.633 127.032 175.14C126.538 174.647 126.261 173.978 126.261 173.281C126.261 172.583 126.538 171.914 127.031 171.421C127.524 170.927 128.192 170.65 128.89 170.65C129.588 170.649 130.257 170.926 130.75 171.419C131.244 171.912 131.521 172.581 131.522 173.278C131.522 173.976 131.246 174.645 130.753 175.138C130.26 175.632 129.591 175.91 128.894 175.911H128.891Z" fill="white"/>
<path opacity="0.3" d="M144.016 166.046C143.319 166.046 142.65 165.769 142.157 165.276C141.663 164.783 141.386 164.114 141.386 163.416C141.386 162.719 141.663 162.05 142.156 161.557C142.649 161.063 143.317 160.786 144.015 160.785C144.713 160.785 145.382 161.062 145.875 161.555C146.369 162.048 146.646 162.716 146.647 163.414C146.647 164.111 146.371 164.781 145.878 165.274C145.385 165.768 144.716 166.046 144.019 166.046H144.016Z" fill="white"/>
<path opacity="0.3" d="M158.484 119.356C157.786 119.356 157.117 119.079 156.624 118.586C156.131 118.093 155.853 117.424 155.853 116.726C155.853 116.029 156.13 115.36 156.623 114.866C157.116 114.373 157.785 114.096 158.482 114.095C159.18 114.095 159.849 114.372 160.343 114.864C160.836 115.357 161.114 116.026 161.114 116.724C161.115 117.421 160.838 118.09 160.345 118.584C159.853 119.078 159.184 119.355 158.486 119.356H158.484Z" fill="white"/>
<path opacity="0.3" d="M173.609 95.0245C172.911 95.0245 172.242 94.7475 171.749 94.2543C171.256 93.7612 170.978 93.0923 170.978 92.3948C170.978 91.6972 171.255 91.0282 171.748 90.5348C172.241 90.0414 172.91 89.764 173.607 89.7637C174.305 89.7633 174.974 90.04 175.468 90.5329C175.961 91.0259 176.239 91.6946 176.239 92.3921C176.24 93.0897 175.963 93.7588 175.47 94.2525C174.978 94.7461 174.309 95.0238 173.611 95.0245H173.609Z" fill="white"/>
<path opacity="0.3" d="M188.076 112.122C187.379 112.122 186.71 111.845 186.216 111.352C185.723 110.859 185.446 110.19 185.446 109.493C185.446 108.795 185.722 108.126 186.215 107.633C186.708 107.139 187.377 106.862 188.075 106.862C188.772 106.861 189.441 107.138 189.935 107.631C190.428 108.124 190.706 108.793 190.707 109.49C190.707 110.188 190.431 110.857 189.938 111.35C189.445 111.844 188.776 112.122 188.079 112.122H188.076Z" fill="white"/>
</g>
</svg>
