<svg width="356" height="312" viewBox="0 0 356 312" fill="none" xmlns="http://www.w3.org/2000/svg">
<rect width="356" height="312" rx="56" fill="#D6E8CF"/>
<rect width="356" height="312" rx="56" fill="url(#paint0_linear_208_5266)" fill-opacity="0.3"/>
<g clip-path="url(#clip0_208_5266)">
<path d="M122.817 116.691H106.26C106.105 116.691 105.957 116.752 105.848 116.861C105.739 116.97 105.677 117.119 105.677 117.273V125.428C105.677 125.582 105.739 125.731 105.848 125.84C105.957 125.949 106.105 126.01 106.26 126.01H122.817C122.972 126.01 123.12 125.949 123.229 125.84C123.338 125.731 123.4 125.582 123.4 125.428V117.273C123.4 117.119 123.338 116.97 123.229 116.861C123.12 116.752 122.972 116.691 122.817 116.691Z" stroke="#AADAF1" stroke-width="0.582496" stroke-linecap="round" stroke-linejoin="round"/>
<path d="M113.949 107.35H97.3941C97.2397 107.35 97.0915 107.412 96.9823 107.521C96.873 107.63 96.8116 107.778 96.8116 107.933V116.088C96.8116 116.242 96.873 116.39 96.9823 116.5C97.0915 116.609 97.2397 116.67 97.3941 116.67H113.949C114.103 116.67 114.251 116.609 114.361 116.5C114.47 116.39 114.531 116.242 114.531 116.088V107.933C114.531 107.778 114.47 107.63 114.361 107.521C114.251 107.412 114.103 107.35 113.949 107.35Z" stroke="#AADAF1" stroke-width="0.582496" stroke-linecap="round" stroke-linejoin="round"/>
<path d="M105.08 116.691H88.5256C88.3711 116.691 88.223 116.752 88.1137 116.861C88.0045 116.97 87.9431 117.119 87.9431 117.273V125.428C87.9431 125.582 88.0045 125.731 88.1137 125.84C88.223 125.949 88.3711 126.01 88.5256 126.01H105.08C105.235 126.01 105.383 125.949 105.492 125.84C105.601 125.731 105.663 125.582 105.663 125.428V117.273C105.663 117.119 105.601 116.97 105.492 116.861C105.383 116.752 105.235 116.691 105.08 116.691Z" stroke="#AADAF1" stroke-width="0.582496" stroke-linecap="round" stroke-linejoin="round"/>
<path d="M131.403 126.028H114.849C114.694 126.028 114.546 126.089 114.437 126.199C114.327 126.308 114.266 126.456 114.266 126.61V134.765C114.266 134.92 114.327 135.068 114.437 135.177C114.546 135.287 114.694 135.348 114.849 135.348H131.403C131.558 135.348 131.706 135.287 131.815 135.177C131.924 135.068 131.986 134.92 131.986 134.765V126.61C131.986 126.456 131.924 126.308 131.815 126.199C131.706 126.089 131.558 126.028 131.403 126.028Z" stroke="#AADAF1" stroke-width="0.582496" stroke-linecap="round" stroke-linejoin="round"/>
<path fill-rule="evenodd" clip-rule="evenodd" d="M103.941 226.22H160.042C160.412 226.22 160.768 226.368 161.03 226.63C161.292 226.892 161.44 227.248 161.44 227.618C161.439 227.989 161.291 228.344 161.029 228.605C160.767 228.867 160.412 229.014 160.042 229.014H103.941C103.571 229.014 103.216 228.867 102.954 228.605C102.692 228.344 102.544 227.989 102.543 227.618C102.543 227.248 102.691 226.892 102.953 226.63C103.215 226.368 103.571 226.22 103.941 226.22Z" fill="white"/>
<path fill-rule="evenodd" clip-rule="evenodd" d="M16.3951 234.632H72.504C72.6874 234.631 72.8689 234.667 73.0384 234.737C73.2078 234.807 73.3618 234.91 73.4914 235.039C73.621 235.169 73.7237 235.323 73.7937 235.492C73.8637 235.662 73.8995 235.843 73.8991 236.027C73.8995 236.21 73.8637 236.392 73.7937 236.561C73.7237 236.73 73.621 236.884 73.4914 237.014C73.3618 237.144 73.2078 237.246 73.0384 237.316C72.8689 237.386 72.6874 237.422 72.504 237.422H16.3951C16.0251 237.422 15.6702 237.275 15.4086 237.013C15.147 236.752 15 236.397 15 236.027V236.027C15 235.657 15.147 235.302 15.4086 235.04C15.6702 234.779 16.0251 234.632 16.3951 234.632Z" fill="white"/>
<path fill-rule="evenodd" clip-rule="evenodd" d="M138.635 227.31C133.957 227.312 129.382 228.683 125.474 231.255C121.567 233.827 118.498 237.486 116.646 241.782C115.139 240.566 113.263 239.899 111.327 239.888C109.391 239.878 107.508 240.526 105.989 241.726C104.934 239.214 103.197 237.048 100.974 235.473C98.7512 233.898 96.1315 232.978 93.412 232.816C90.6925 232.654 87.9821 233.257 85.588 234.557C83.1939 235.857 81.2119 237.802 79.8668 240.171C78.4664 239.305 76.8905 238.763 75.2539 238.584C73.6173 238.404 71.9613 238.592 70.4065 239.134C68.8518 239.675 67.4375 240.557 66.2666 241.714C65.0957 242.872 64.1979 244.276 63.6384 245.824C63.8947 245.824 64.1365 245.751 64.3957 245.751H175.277C174.871 244.261 174.088 242.901 173.002 241.802C171.917 240.703 170.566 239.903 169.081 239.479C167.595 239.055 166.026 239.022 164.524 239.383C163.022 239.743 161.639 240.485 160.508 241.537C158.629 237.304 155.562 233.707 151.68 231.182C147.798 228.656 143.266 227.311 138.635 227.31Z" fill="#DEDEDE"/>
<path fill-rule="evenodd" clip-rule="evenodd" d="M57.63 242.961H184.486C184.856 242.962 185.211 243.11 185.473 243.372C185.734 243.634 185.881 243.989 185.881 244.359C185.88 244.729 185.733 245.083 185.472 245.345C185.21 245.606 184.856 245.753 184.486 245.754H57.63C57.2602 245.753 56.9058 245.606 56.6444 245.345C56.3829 245.083 56.2357 244.729 56.2349 244.359C56.2349 243.989 56.3818 243.634 56.6434 243.372C56.9049 243.11 57.2597 242.962 57.63 242.961Z" fill="#DEDEDE"/>
<path fill-rule="evenodd" clip-rule="evenodd" d="M37.0387 226.963L33.3486 232.133L40.9502 241.66L44.4452 235.543L37.0387 226.963Z" fill="#F77F89"/>
<path fill-rule="evenodd" clip-rule="evenodd" d="M33.0079 229.782L24.2704 239.877L37.997 255.896C37.997 255.896 47.1072 255.797 49.9848 255.797C49.9265 252.302 47.3868 245.061 40.3153 245.341C41.7424 242.836 42.756 240.771 42.756 240.771L33.0079 229.782Z" fill="#6367FD"/>
<path d="M40.3094 245.35C36.3572 244.129 34.5602 245.719 31.7875 248.661C29.8507 250.717 25.814 250.542 23.3413 249.363" stroke="#4C4FD9" stroke-width="0.582496" stroke-linecap="round" stroke-linejoin="round"/>
<path d="M31.2516 258.188C32.5542 258.747 33.8991 259.202 35.2738 259.548C38.8911 256.344 41.0318 248.739 40.3532 245.349" stroke="#4C4FD9" stroke-width="0.582496" stroke-linecap="round" stroke-linejoin="round"/>
<path d="M29.4779 233.755C30.3325 234.402 30.9951 235.269 31.3948 236.263C31.7944 237.258 31.9161 238.342 31.7467 239.401C31.5774 240.459 31.1234 241.451 30.4333 242.271C29.7433 243.091 28.8432 243.708 27.8295 244.056" stroke="#4C4FD9" stroke-width="0.582496" stroke-linecap="round" stroke-linejoin="round"/>
<path d="M25.7936 238.109L39.3046 252.864L49.3148 252.281" stroke="#4C4FD9" stroke-width="0.582496" stroke-linecap="round" stroke-linejoin="round"/>
<path fill-rule="evenodd" clip-rule="evenodd" d="M58.8212 184.248L35.7194 226.587L44.5646 236.941L86.3092 193.865L77.1466 180.917L58.8212 184.248Z" fill="#F7D167"/>
<path d="M49.3673 231.987L39.0629 220.457" stroke="#FF3274" stroke-width="0.582496" stroke-linecap="round" stroke-linejoin="round"/>
<path fill-rule="evenodd" clip-rule="evenodd" d="M77.1436 180.919L58.8241 184.251L49.5042 201.345L65.5024 200.963L70.7187 209.954L86.3092 193.871L77.1436 180.919Z" fill="#BF9111"/>
<path d="M39.628 231.163C49.0936 220.075 78.0727 186.281 78.0727 186.281" stroke="#FF3274" stroke-width="0.582496" stroke-linecap="round" stroke-linejoin="round"/>
<path fill-rule="evenodd" clip-rule="evenodd" d="M102.543 240.855L105.334 246.68L117.84 244.417L115.772 237.401L102.543 240.855Z" fill="#F77F89"/>
<path fill-rule="evenodd" clip-rule="evenodd" d="M103.478 246.704L107.751 258.936C107.751 258.936 132.469 253.985 134.348 253.499C130.853 245.285 123.682 246.663 120.537 247.449C119.748 245.953 119.044 244.414 118.428 242.839L103.478 246.704Z" fill="#6367FD"/>
<path d="M120.327 244.636C120.834 242.987 122.01 241.889 122.948 242.181C123.886 242.472 124.247 244.039 123.74 245.676C123.234 247.312 122.057 248.419 121.119 248.131C120.181 247.842 119.82 246.281 120.327 244.636Z" stroke="#4C4FD9" stroke-width="0.582496" stroke-linecap="round" stroke-linejoin="round"/>
<path d="M124.469 244.426C125.779 243.084 127.41 242.661 128.115 243.486C128.82 244.31 128.325 246.066 127.014 247.409C125.703 248.751 124.072 249.177 123.368 248.352C122.663 247.528 123.158 245.778 124.469 244.426Z" stroke="#4C4FD9" stroke-width="0.582496" stroke-linecap="round" stroke-linejoin="round"/>
<path fill-rule="evenodd" clip-rule="evenodd" d="M113.066 148.384C114.616 149.637 116.223 151.128 118.288 151.908C121.376 152.657 127.026 158.849 127.026 160.183C127.026 161.447 125.899 161.872 125.197 161.93C124.591 161.968 123.301 160.567 122.974 160.168C123.537 161.45 123.863 163.185 123.239 163.73C122.616 164.275 121.719 164.464 121.108 163.759C120.103 162.594 120.35 161.272 120.257 160.497C119.762 159.551 118.414 157.445 117.843 157.189C117.444 157.209 116.844 157.349 116.73 157.987C116.617 158.625 118.099 160.049 118.265 160.643C118.265 161.397 117.441 162.355 116.73 162.166C115.92 161.951 113.416 159.519 112.862 158.855C112.117 157.96 111.779 156.012 111.38 155.36C110.981 154.707 109.431 153.321 109.143 153.03C108.855 152.738 111.52 147.129 113.066 148.384Z" fill="#F77F89"/>
<path fill-rule="evenodd" clip-rule="evenodd" d="M97.6009 117.853C103.167 122.58 111.496 141.196 116.85 145.778C116.29 148.652 107.422 159.358 101.154 156.807C93.3021 153.609 93.3982 114.285 97.6009 117.853Z" fill="#3B4161"/>
<path fill-rule="evenodd" clip-rule="evenodd" d="M101.926 144.388L118.428 238.092L101.14 242.169L78.4368 182.597L84.0753 141.196L101.926 144.388Z" fill="#F7D167"/>
<path d="M87.3548 205.996L79.2377 184.694" stroke="#FF3274" stroke-width="0.582496" stroke-linecap="round" stroke-linejoin="round"/>
<path d="M108.657 240.398L81.9871 156.53" stroke="#FF3274" stroke-width="0.582496" stroke-linecap="round" stroke-linejoin="round"/>
<path d="M103.388 152.701C101.058 153.676 89.1169 155.881 84.5035 155.398" stroke="#FF3274" stroke-width="0.582496" stroke-linecap="round" stroke-linejoin="round"/>
<path fill-rule="evenodd" clip-rule="evenodd" d="M53.3137 130.339L84.6258 133.662C86.4927 133.86 87.8295 135.619 87.6256 137.594L82.5405 185.489C82.3308 187.461 80.6503 188.9 78.7834 188.693L47.4713 185.382C45.6044 185.184 44.2675 183.424 44.4714 181.45L49.5537 133.554C49.7634 131.579 51.4468 130.152 53.3137 130.339Z" fill="#6367FD"/>
<path d="M54.3418 159.522C54.3418 157.16 55.0421 154.851 56.3542 152.887C57.6664 150.924 59.5313 149.393 61.7133 148.489C63.8952 147.586 66.2962 147.349 68.6126 147.81C70.9289 148.271 73.0567 149.408 74.7267 151.078C76.3967 152.748 77.5339 154.876 77.9947 157.192C78.4555 159.508 78.219 161.909 77.3152 164.091C76.4114 166.273 74.8809 168.138 72.9171 169.45C70.9534 170.762 68.6447 171.463 66.283 171.463C63.116 171.463 60.0787 170.205 57.8393 167.965C55.5999 165.726 54.3418 162.689 54.3418 159.522Z" stroke="#4C4FD9" stroke-width="0.582496" stroke-linecap="round" stroke-linejoin="round"/>
<path fill-rule="evenodd" clip-rule="evenodd" d="M65.5141 76.8245C65.5141 73.8509 67.1888 71.4393 69.2566 71.4393C71.3245 71.4393 73.0021 73.8509 73.0021 76.8245C73.0021 79.7982 71.3245 82.2097 69.2566 82.2097C67.1888 82.2097 65.5141 79.7982 65.5141 76.8245Z" fill="#F77F89"/>
<path fill-rule="evenodd" clip-rule="evenodd" d="M67.6227 79.6496C67.6227 77.2837 68.3244 74.9709 69.6388 73.0038C70.9533 71.0366 72.8216 69.5035 75.0075 68.5982C77.1933 67.693 79.5986 67.4563 81.919 67.918C84.2394 68.3798 86.3707 69.5193 88.0434 71.1925C89.7162 72.8656 90.8552 74.9972 91.3164 77.3178C91.7776 79.6383 91.5403 82.0434 90.6345 84.2291C89.7287 86.4147 88.1951 88.2826 86.2277 89.5966C84.2602 90.9107 81.9473 91.6117 79.5814 91.6111C78.0107 91.6111 76.4554 91.3017 75.0043 90.7005C73.5533 90.0994 72.2348 89.2183 71.1243 88.1075C70.0138 86.9967 69.133 85.6781 68.5322 84.2268C67.9314 82.7756 67.6224 81.2202 67.6227 79.6496Z" fill="#F77F89"/>
<path fill-rule="evenodd" clip-rule="evenodd" d="M63.5744 155.98C63.0181 157.835 61.2153 161.694 62.9308 168.6C59.6804 173.624 61.1978 177.163 68.6421 178.051C69.8945 176.522 71.1498 175.52 72.5478 173.312C73.0021 171.326 72.9613 168.277 73.0021 167.449C73.0808 165.778 70.6314 159.163 71.2401 156.193C71.8488 153.222 64.1307 154.122 63.5744 155.98Z" fill="#F77F89"/>
<path fill-rule="evenodd" clip-rule="evenodd" d="M78.4164 95.6246C61.2094 95.6246 54.6592 131.783 56.5378 154.92C60.1056 157.171 74.3447 158.048 78.4164 156.979C79.2901 152.916 79.5814 135.913 79.7765 133.146C89.2799 134.078 87.6402 135.549 86.4927 148.268C91.4439 148.44 98.1135 147.103 103.094 145.012C103.793 136.292 98.6669 95.6246 78.4164 95.6246Z" fill="#3B4161"/>
<path d="M54.3418 132.532L56.6135 110.79C56.9689 107.389 58.6607 104.268 61.3169 102.115C63.973 99.9609 67.3759 98.9506 70.7769 99.3059L73.2147 99.5593C76.6157 99.9146 79.7363 101.606 81.8899 104.263C84.0436 106.919 85.0539 110.322 84.6986 113.723L82.3686 136.076" stroke="#6367FD" stroke-width="1.97175" stroke-linecap="round" stroke-linejoin="round"/>
<path fill-rule="evenodd" clip-rule="evenodd" d="M71.3769 86.6484C72.2739 90.5016 72.4982 95.9276 72.3497 98.0595C74.6301 99.4051 80.5425 100.34 83.3851 96.5247C82.0395 93.2714 81.7395 91.6987 81.8531 89.8259C81.9667 87.9532 70.4799 82.7952 71.3769 86.6484Z" fill="#F77F89"/>
<path fill-rule="evenodd" clip-rule="evenodd" d="M75.1893 90.7783C74.936 88.7104 76.4242 83.8437 77.2747 83.168C85.2694 83.4592 90.2323 77.7653 91.0391 76.2072C91.7853 77.1979 92.3287 78.3262 92.638 79.5274C92.8448 80.3196 92.6642 80.8759 91.3099 82.0117C90.9663 86.6804 86.7286 94.0927 75.1893 90.7783Z" fill="white"/>
<path d="M77.9096 83.6601C77.9096 83.6601 70.6284 77.7012 68.5139 77.4099" stroke="white" stroke-width="0.888307" stroke-linecap="round" stroke-linejoin="round"/>
<path fill-rule="evenodd" clip-rule="evenodd" d="M83.8481 77.4187C83.8481 76.3819 84.186 75.5402 84.6025 75.5402C85.019 75.5402 85.3568 76.3819 85.3568 77.4187C85.3568 78.4556 85.019 79.2973 84.6025 79.2973C84.186 79.2973 83.8481 78.4556 83.8481 77.4187Z" fill="#CB5D66"/>
<path d="M79.0571 150.513C76.2874 150.912 61.2182 150.26 56.2349 148.209" stroke="#737999" stroke-width="0.582496" stroke-linecap="round" stroke-linejoin="round"/>
<path d="M79.7765 133.146C79.5813 127.446 84.7685 108.941 74.5165 101.33" stroke="#737999" stroke-width="0.582496" stroke-linecap="round" stroke-linejoin="round"/>
<path d="M79.7794 133.114L74.5165 135.368" stroke="#737999" stroke-width="0.582496" stroke-linecap="round" stroke-linejoin="round"/>
<path d="M74.7466 132.613L79.794 132.968" stroke="#737999" stroke-width="0.582496" stroke-linecap="round" stroke-linejoin="round"/>
<path d="M75.4952 129.063L79.7998 132.931" stroke="#737999" stroke-width="0.582496" stroke-linecap="round" stroke-linejoin="round"/>
<path d="M103.108 145.006C103.4 141.193 102.596 131.276 99.9047 121.322" stroke="#737999" stroke-width="0.582496" stroke-linecap="round" stroke-linejoin="round"/>
<path d="M112.891 141.158C110.561 145.271 105.028 149.712 103.018 150.595" stroke="#737999" stroke-width="0.582496" stroke-linecap="round" stroke-linejoin="round"/>
<path d="M96.6922 154.276C96.4476 152.802 95.568 147.33 95.568 147.33" stroke="#FF3274" stroke-width="0.582496" stroke-linecap="round" stroke-linejoin="round"/>
<path d="M117.4 232.264L98.5009 235.246" stroke="#FF3274" stroke-width="0.582496" stroke-linecap="round" stroke-linejoin="round"/>
<path d="M111.986 201.307C111.651 201.344 111.315 201.363 110.978 201.362C108.748 201.363 106.595 200.546 104.926 199.067C103.257 197.588 102.188 195.549 101.92 193.335C101.653 191.121 102.205 188.885 103.474 187.051C104.743 185.217 106.639 183.911 108.805 183.381" stroke="#FF3274" stroke-width="0.582496" stroke-linecap="round" stroke-linejoin="round"/>
<path d="M106.938 256.615L133.375 251.603" stroke="#4C4FD9" stroke-width="0.582496" stroke-linecap="round" stroke-linejoin="round"/>
<path d="M104.824 250.869C105.72 250.517 106.688 250.39 107.644 250.498C108.601 250.606 109.516 250.945 110.311 251.488C111.107 252.03 111.757 252.758 112.207 253.609C112.657 254.46 112.891 255.408 112.891 256.37C112.892 256.883 112.827 257.394 112.696 257.891" stroke="#4C4FD9" stroke-width="0.582496" stroke-linecap="round" stroke-linejoin="round"/>
<path d="M75.3146 90.3413C74.4001 89.9947 70.7246 88.7132 68.814 84.8629" stroke="white" stroke-width="0.888307" stroke-linecap="round" stroke-linejoin="round"/>
<path fill-rule="evenodd" clip-rule="evenodd" d="M65.2986 81.9272C65.298 81.1648 65.5236 80.4194 65.9468 79.7853C66.3699 79.1512 66.9717 78.6569 67.6759 78.3649C68.3801 78.0729 69.1551 77.9964 69.9028 78.1449C70.6505 78.2935 71.3374 78.6606 71.8764 79.1996C72.4155 79.7387 72.7825 80.4255 72.9311 81.1733C73.0797 81.921 73.0032 82.696 72.7111 83.4002C72.4191 84.1044 71.9248 84.7061 71.2907 85.1293C70.6566 85.5525 69.9112 85.778 69.1489 85.7775C68.128 85.7767 67.1491 85.3708 66.4272 84.6489C65.7053 83.927 65.2994 82.9481 65.2986 81.9272Z" fill="#F77F89"/>
<path d="M72.8332 83.0543C72.5913 83.8427 72.1029 84.5328 71.4397 85.0229C70.7765 85.5131 69.9735 85.7776 69.1489 85.7775" stroke="#CB5D66" stroke-width="0.582496" stroke-linecap="round" stroke-linejoin="round"/>
<path d="M66.1111 79.5595C66.6671 78.8454 67.4571 78.3504 68.3421 78.1615" stroke="#CB5D66" stroke-width="0.582496" stroke-linecap="round" stroke-linejoin="round"/>
<path fill-rule="evenodd" clip-rule="evenodd" d="M75.2884 62.6233C73.6393 63.0031 72.0811 63.7041 70.7029 64.6861C69.3247 65.6682 68.1535 66.9122 67.2561 68.3469C66.3587 69.7817 65.7528 71.3792 65.4729 73.0482C65.193 74.7172 65.2446 76.425 65.6248 78.074L90.7391 72.2869C90.3593 70.6378 89.6583 69.0796 88.6762 67.7015C87.6942 66.3233 86.4502 65.152 85.0154 64.2547C83.5807 63.3573 81.9832 62.7513 80.3142 62.4714C78.6452 62.1915 76.9374 62.2431 75.2884 62.6233Z" fill="#F2E283"/>
<path fill-rule="evenodd" clip-rule="evenodd" d="M81.1919 70.4259L99.3396 66.2435C100.842 65.894 102.252 66.4794 102.508 67.5425C102.753 68.6085 101.734 69.7531 100.228 70.1026L82.0803 74.2849C80.5745 74.6315 79.1678 74.049 78.9115 72.983C78.6639 71.9171 79.6862 70.7724 81.1919 70.4259Z" fill="#F2E283"/>
<path d="M62.4006 175.709C63.1761 174.887 63.8714 173.992 64.4772 173.038" stroke="#CB5D66" stroke-width="0.582496" stroke-linecap="round" stroke-linejoin="round"/>
<path d="M65.616 177.454C66.8393 176.271 68.6304 173.775 69.545 172.278" stroke="#CB5D66" stroke-width="0.582496" stroke-linecap="round" stroke-linejoin="round"/>
<path d="M117.08 157.413C118.914 155.89 121.777 159.009 123.079 160.267" stroke="#CB5D66" stroke-width="0.582496" stroke-linecap="round" stroke-linejoin="round"/>
<path d="M69.8158 83.4942C69.6058 83.587 69.3785 83.6347 69.1489 83.6339C68.893 83.6343 68.6405 83.5756 68.4111 83.4623C68.1817 83.3489 67.9816 83.1841 67.8264 82.9807C67.6712 82.7772 67.5651 82.5407 67.5165 82.2895C67.4678 82.0383 67.4779 81.7792 67.5459 81.5326C67.6139 81.2859 67.7381 81.0583 67.9086 80.8675C68.0791 80.6767 68.2914 80.528 68.5289 80.4328C68.7664 80.3376 69.0227 80.2987 69.2778 80.3189C69.5329 80.3392 69.7798 80.4182 69.9993 80.5496" stroke="#CB5D66" stroke-width="0.582496" stroke-linecap="round" stroke-linejoin="round"/>
<path d="M81.4221 62.7048C79.6226 62.239 77.7437 62.1677 75.9142 62.4959C74.0846 62.8241 72.3476 63.544 70.8223 64.6063C69.2969 65.6685 68.0193 67.048 67.0769 68.6502C66.1346 70.2524 65.5498 72.0394 65.3627 73.8888" stroke="#FF3274" stroke-width="0.582496" stroke-linecap="round" stroke-linejoin="round"/>
<path d="M91.0391 76.2072C91.7854 77.1979 92.3287 78.3262 92.638 79.5274C92.8448 80.3196 92.6643 80.8759 91.31 82.0117C91.042 85.6319 88.4353 90.9006 81.8997 91.5414" stroke="#C9C9C9" stroke-width="0.582496" stroke-linecap="round" stroke-linejoin="round"/>
</g>
<g clip-path="url(#clip1_208_5266)">
<path fill-rule="evenodd" clip-rule="evenodd" d="M331.807 179.078C316.322 178.853 308.683 234.672 309.984 238.684C310.281 239.598 310.988 240.6 311.894 241.558H325.516C327.573 237.168 330.52 228.231 332.835 218.357L328.943 216.186L333.858 213.715C334.941 208.634 335.702 203.49 336.138 198.314L332.318 197.434L334.42 194.379L332.007 193.824L336.135 189.357C335.69 184.512 334.417 180.733 331.807 179.078Z" fill="#AADAF1"/>
<path d="M331.768 179.081L317.671 241.552" stroke="#72A5BD" stroke-width="0.582496" stroke-linecap="round" stroke-linejoin="round"/>
<path fill-rule="evenodd" clip-rule="evenodd" d="M303.81 165.723C284.906 172.759 298.027 234.706 301.8 241.375H321.799C321.827 241.322 321.868 241.28 321.893 241.228C324.117 236.71 323.578 206.144 317.551 185.289L312.58 185.403L315.972 180.466C313.034 172.367 309.064 166.473 303.81 165.723Z" fill="#AADAF1"/>
<path d="M286.73 241.561H340.939" stroke="#72A5BD" stroke-width="0.582496" stroke-linecap="round" stroke-linejoin="round"/>
<path d="M303.765 165.743L312.92 241.414" stroke="#72A5BD" stroke-width="0.582496" stroke-linecap="round" stroke-linejoin="round"/>
<path fill-rule="evenodd" clip-rule="evenodd" d="M300.718 233.528C302.664 234.939 308.555 239.695 308.875 240.986C309.194 242.277 305.978 250.876 305.289 251.498C304.599 252.12 297.766 253.772 297.441 254.213C297.116 254.655 297.377 256.004 297.702 256.668C298.027 257.331 308.48 256.582 308.48 256.582C308.48 256.582 322.049 243.193 321.879 242.199C321.71 241.205 306.487 227.484 306.487 227.484C306.487 227.484 298.778 232.121 300.718 233.528Z" fill="#F77F89"/>
<path fill-rule="evenodd" clip-rule="evenodd" d="M315.789 236.061C315.269 239.57 313.428 244.865 307.66 245.884C306.765 248.488 305.664 251.159 305.286 251.498C304.596 252.117 297.766 253.772 297.441 254.213C297.116 254.655 297.382 256.004 297.702 256.668C298.022 257.331 308.477 256.582 308.477 256.582C308.477 256.582 322.055 243.199 321.882 242.205C321.81 241.786 318.935 239.015 315.789 236.061Z" fill="#6367FD"/>
<path fill-rule="evenodd" clip-rule="evenodd" d="M233.382 245.306C232.693 247.133 225.301 264.625 224.517 264.992C223.733 265.358 201.835 254.691 201.668 253.638C201.502 252.586 202.502 250.354 203.292 250.515C211.657 252.181 221.834 252.75 222.943 250.643C224.053 248.535 225.479 243.637 225.479 243.637C225.479 243.637 234.083 243.493 233.382 245.306Z" fill="#F77F89"/>
<path fill-rule="evenodd" clip-rule="evenodd" d="M203.289 250.515C202.489 250.357 201.491 252.589 201.666 253.639C201.841 254.688 223.727 265.367 224.514 264.989C224.862 264.82 226.569 261.141 228.362 257.084C221.604 258.103 218.009 254.941 216.486 251.984C212.052 251.886 207.636 251.395 203.289 250.515Z" fill="#6367FD"/>
<path fill-rule="evenodd" clip-rule="evenodd" d="M254.073 194.954C276.408 222.611 298.111 237.346 298.111 237.346L309.664 225.685L276.305 186.919C276.305 186.919 279.04 156.994 273.247 151.505C267.453 146.016 240.029 177.565 254.073 194.954Z" fill="#C4C4C4"/>
<path fill-rule="evenodd" clip-rule="evenodd" d="M244.663 149.714L221.756 243.215L234.175 249.324C234.175 249.324 254.971 194.627 258.046 191.295C264.373 184.451 274.642 159.837 273.744 150.311C272.847 140.784 244.663 149.714 244.663 149.714Z" fill="#C4C4C4"/>
<path fill-rule="evenodd" clip-rule="evenodd" d="M284.57 156.247C285.101 158.015 286.821 161.694 285.184 168.277C288.286 173.067 286.838 176.44 279.732 177.287C278.537 175.83 277.336 174.872 276.005 172.77C275.571 170.876 275.61 167.969 275.571 167.181C275.496 165.587 278.737 158.537 278.156 155.705C277.575 152.873 284.036 154.475 284.57 156.247Z" fill="#F77F89"/>
<path d="M285.69 175.055C284.949 174.272 284.285 173.419 283.708 172.509" stroke="#CB5D66" stroke-width="0.582496" stroke-linecap="round" stroke-linejoin="round"/>
<path d="M282.618 176.718C281.45 175.591 279.744 173.211 278.868 171.784" stroke="#CB5D66" stroke-width="0.582496" stroke-linecap="round" stroke-linejoin="round"/>
<path fill-rule="evenodd" clip-rule="evenodd" d="M225.493 149.233C224.014 150.43 222.479 151.852 220.508 152.596C217.561 153.307 212.168 159.212 212.168 160.484C212.168 161.689 213.244 162.094 213.914 162.15C214.492 162.186 215.724 160.85 216.035 160.47C215.499 161.692 215.201 163.346 215.782 163.866C216.363 164.385 217.233 164.565 217.814 163.893C218.776 162.783 218.54 161.522 218.629 160.784C219.102 159.881 220.389 157.874 220.934 157.63C221.314 157.649 221.887 157.782 221.996 158.39C222.104 158.998 220.689 160.356 220.53 160.923C220.53 161.642 221.314 162.555 221.996 162.375C222.768 162.169 225.159 159.851 225.687 159.218C226.399 158.365 226.721 156.505 227.102 155.886C227.483 155.267 228.962 153.942 229.237 153.665C229.513 153.387 226.969 148.04 225.493 149.233Z" fill="#F77F89"/>
<path d="M221.662 157.843C219.911 156.391 217.178 159.365 215.935 160.564" stroke="#CB5D66" stroke-width="0.582496" stroke-linecap="round" stroke-linejoin="round"/>
<path fill-rule="evenodd" clip-rule="evenodd" d="M248.452 101.644C242.726 107.111 239.921 120.802 238.397 129.615C233.374 134.551 223.258 145.482 223.266 148.106C223.274 150.73 228.212 155.111 229.468 155.081C230.725 155.05 242.423 142.264 244.241 140.771C246.059 139.277 249.817 100.336 248.452 101.644Z" fill="#F7D167"/>
<path fill-rule="evenodd" clip-rule="evenodd" d="M246.334 79.1543C245.564 78.463 244.257 78.1964 244.257 74.3926C244.257 70.3417 249.095 66.66 255.255 66.66C264.929 66.66 267.74 75.1339 268.073 78.1298C268.407 81.1257 267.881 88.2141 268.554 91.0933C269.905 96.9851 275.579 101.533 275.579 111.379C275.579 114.372 262.58 111.778 260.253 111.431C257.926 111.084 255.21 95.6718 255.21 95.6718C255.21 95.6718 247.104 79.8457 246.334 79.1543Z" fill="black"/>
<path fill-rule="evenodd" clip-rule="evenodd" d="M261.11 88.2139C260.645 90.0853 260.579 98.09 260.923 100.761C259.347 101.891 253.481 101.761 252.258 100.536C252.628 97.2376 252.628 94.3028 252.258 92.8757C251.888 91.4486 261.574 86.3425 261.11 88.2139Z" fill="#F77F89"/>
<path fill-rule="evenodd" clip-rule="evenodd" d="M243.813 82.3417C243.813 75.9335 248.455 70.7386 254.185 70.7386C259.914 70.7386 264.557 75.9335 264.557 82.3417C264.557 88.7499 259.914 93.9419 254.185 93.9419C248.455 93.9419 243.813 88.7471 243.813 82.3417Z" fill="#F77F89"/>
<path fill-rule="evenodd" clip-rule="evenodd" d="M256.217 93.3311C256.064 91.3487 254.432 87.0423 253.581 86.5286C252.731 86.015 246.053 85.2265 243.813 81.8947C242.673 82.8359 241.739 84.5851 241.831 84.9488C242.02 85.7013 243.807 86.9757 243.807 86.9757C243.807 86.9757 244.21 91.8012 247.699 93.953C250.22 95.5134 255.21 94.239 256.217 93.3311Z" fill="white"/>
<path d="M253.362 87.1728C254.527 85.2293 257.646 82.686 259.305 81.9752" stroke="white" stroke-width="0.582496" stroke-linecap="round" stroke-linejoin="round"/>
<path d="M254.894 90.0687C254.894 90.0687 261.496 91.0766 262.566 88.214" stroke="white" stroke-width="0.582496" stroke-linecap="round" stroke-linejoin="round"/>
<path fill-rule="evenodd" clip-rule="evenodd" d="M248.497 71.4689C249.856 72.6961 250.457 75.7614 251.699 77.2996C253.715 79.7985 257.59 80.2233 258.783 83.519C259.975 86.8147 266.216 84.152 266.216 84.152L265.416 76.3167L260.793 71.4884L253.604 69.4365C253.604 69.4365 247.149 70.2389 248.497 71.4689Z" fill="black"/>
<path fill-rule="evenodd" clip-rule="evenodd" d="M257.001 85.2265C257.001 84.4434 257.233 83.6779 257.669 83.0268C258.104 82.3757 258.724 81.8683 259.448 81.5686C260.172 81.2689 260.969 81.1905 261.738 81.3433C262.507 81.4961 263.214 81.8731 263.768 82.4269C264.322 82.9806 264.7 83.6861 264.853 84.4541C265.006 85.2221 264.927 86.0182 264.627 86.7417C264.327 87.4651 263.819 88.0835 263.167 88.5186C262.515 88.9536 261.749 89.1858 260.965 89.1858C259.914 89.1851 258.906 88.7677 258.163 88.0254C257.419 87.283 257.001 86.2764 257.001 85.2265Z" fill="#F77F89"/>
<path fill-rule="evenodd" clip-rule="evenodd" d="M248.311 81.5365C248.311 80.7341 248.664 80.0844 249.097 80.0844C249.531 80.0844 249.887 80.7341 249.887 81.5365C249.887 82.3389 249.534 82.9886 249.097 82.9886C248.661 82.9886 248.311 82.3389 248.311 81.5365Z" fill="#CB5D66"/>
<path fill-rule="evenodd" clip-rule="evenodd" d="M256.692 96.4214C273.714 96.4214 285.573 128.657 286.807 133.546C288.042 138.436 287.085 156.264 286.643 157.618C284.956 157.949 278.86 156.833 277.592 156.072C276.48 154.217 276.071 140.16 275.618 138.885C275.299 137.813 274.736 136.828 273.972 136.009C274.467 139.79 273.931 149.075 273.603 150.43C273.275 151.785 246.854 151.721 244.85 150.883C243.593 150.358 242.706 149.811 242.528 148.545C242.25 146.454 243.101 145.071 242.87 143.325C242.639 141.579 241.658 141.309 241.361 138.466C241.052 135.49 243.062 131.525 242.403 128.587C238.923 113.047 247.268 96.4214 256.692 96.4214Z" fill="#F7D167"/>
<path fill-rule="evenodd" clip-rule="evenodd" d="M253.031 96.3158H260.342C260.773 96.3158 261.123 96.81 261.123 97.4264V100.442C261.123 101.05 260.773 101.552 260.342 101.552H253.031C252.597 101.552 252.247 101.058 252.247 100.442V97.4181C252.247 96.81 252.597 96.3158 253.031 96.3158Z" fill="#F7D167"/>
<path d="M224.511 244.57L251.922 154.084" stroke="#8D8D8D" stroke-width="0.582496" stroke-linecap="round" stroke-linejoin="round"/>
<path d="M236.201 244.037L223.135 237.573" stroke="#8D8D8D" stroke-width="0.582496" stroke-linecap="round" stroke-linejoin="round"/>
<path d="M250.732 195.648C249.406 196.412 246.587 196.006 245.214 195.093" stroke="#8D8D8D" stroke-width="0.582496" stroke-linecap="round" stroke-linejoin="round"/>
<path d="M247.09 187.846L252.892 193.308" stroke="#8D8D8D" stroke-width="0.582496" stroke-linecap="round" stroke-linejoin="round"/>
<path d="M255.255 196.648C256.553 193.782 257.54 191.839 258.035 191.292C263.675 185.184 272.452 164.962 273.653 153.895" stroke="#8D8D8D" stroke-width="0.582496" stroke-linecap="round" stroke-linejoin="round"/>
<path d="M302.005 233.412C302.005 233.412 264.615 197.761 262.878 196.365C262.766 193.866 262.6 188.999 260.868 187.505" stroke="#8D8D8D" stroke-width="0.582496" stroke-linecap="round" stroke-linejoin="round"/>
<path d="M275.476 189.176C274.278 189.995 272.229 192.919 272.096 194.607" stroke="#8D8D8D" stroke-width="0.582496" stroke-linecap="round" stroke-linejoin="round"/>
<path d="M274.114 188.049C273.444 188.238 271.509 189.337 271.015 190.229" stroke="#8D8D8D" stroke-width="0.582496" stroke-linecap="round" stroke-linejoin="round"/>
<path d="M274.173 186.453L271.746 186.272L267.72 184.753" stroke="#8D8D8D" stroke-width="0.582496" stroke-linecap="round" stroke-linejoin="round"/>
<path d="M274.089 186.447L271.865 186.28" stroke="#8D8D8D" stroke-width="0.582496" stroke-linecap="round" stroke-linejoin="round"/>
<path d="M306.05 221.478L293.018 233.578" stroke="#8D8D8D" stroke-width="0.582496" stroke-linecap="round" stroke-linejoin="round"/>
<path d="M242.917 156.844C242.917 156.844 252.595 158.593 258.577 157.777" stroke="#8D8D8D" stroke-width="0.582496" stroke-linecap="round" stroke-linejoin="round"/>
<path d="M244.052 151.343C243.218 150.902 242.662 150.355 242.528 149.375C242.25 147.287 243.101 145.902 242.87 144.158C242.639 142.414 241.658 142.142 241.361 139.299C241.052 136.323 243.062 132.358 242.403 129.42C241.185 123.808 241.355 117.984 242.898 112.453" stroke="#FF3274" stroke-width="0.582496" stroke-linecap="round" stroke-linejoin="round"/>
<path d="M232.348 152.754C231.331 152.174 226.115 147.429 224.867 144.88" stroke="#FF3274" stroke-width="0.582496" stroke-linecap="round" stroke-linejoin="round"/>
<path d="M230.983 151.685L228.284 154.575" stroke="#FF3274" stroke-width="0.582496" stroke-linecap="round" stroke-linejoin="round"/>
<path d="M229.248 150.349L226.552 153.243" stroke="#FF3274" stroke-width="0.582496" stroke-linecap="round" stroke-linejoin="round"/>
<path d="M227.564 148.795L225.015 151.527" stroke="#FF3274" stroke-width="0.582496" stroke-linecap="round" stroke-linejoin="round"/>
<path d="M226.216 147.032L223.73 149.694" stroke="#FF3274" stroke-width="0.582496" stroke-linecap="round" stroke-linejoin="round"/>
<path d="M287.08 154.065L276.794 152.954" stroke="#FF3274" stroke-width="0.582496" stroke-linecap="round" stroke-linejoin="round"/>
<path d="M285.381 153.881L285.103 158.482" stroke="#FF3274" stroke-width="0.582496" stroke-linecap="round" stroke-linejoin="round"/>
<path d="M282.81 153.601L282.415 158.16" stroke="#FF3274" stroke-width="0.582496" stroke-linecap="round" stroke-linejoin="round"/>
<path d="M280.28 153.326L279.983 157.68" stroke="#FF3274" stroke-width="0.582496" stroke-linecap="round" stroke-linejoin="round"/>
<path d="M287.636 142.164C286.107 142.163 284.626 141.632 283.446 140.662C282.266 139.691 281.459 138.342 281.164 136.844C280.868 135.346 281.103 133.792 281.827 132.447C282.551 131.102 283.72 130.05 285.134 129.47" stroke="#FF3274" stroke-width="0.582496" stroke-linecap="round" stroke-linejoin="round"/>
<path d="M273.975 136.842C273.063 135.348 262.449 118.622 261.899 117.961" stroke="#FF3274" stroke-width="0.582496" stroke-linecap="round" stroke-linejoin="round"/>
<path d="M259.492 118.042L261.91 117.898" stroke="#FF3274" stroke-width="0.582496" stroke-linecap="round" stroke-linejoin="round"/>
<path d="M259.845 120.724L261.882 117.901" stroke="#FF3274" stroke-width="0.582496" stroke-linecap="round" stroke-linejoin="round"/>
<path d="M261.557 122.19L261.871 117.942" stroke="#FF3274" stroke-width="0.582496" stroke-linecap="round" stroke-linejoin="round"/>
<path d="M247.646 144.125L255.11 140.485" stroke="#FF3274" stroke-width="0.582496" stroke-linecap="round" stroke-linejoin="round"/>
<path d="M254.983 139.505L245.139 141.479" stroke="#FF3274" stroke-width="0.582496" stroke-linecap="round" stroke-linejoin="round"/>
<path d="M246.365 139.985L254.596 134.571" stroke="#FF3274" stroke-width="0.582496" stroke-linecap="round" stroke-linejoin="round"/>
<path d="M256.848 101.536H253.031C252.597 101.536 252.247 101.042 252.247 100.425V97.4182C252.247 96.8102 252.597 96.3076 253.031 96.3076H260.342C260.466 96.3148 260.585 96.3539 260.689 96.4211C260.793 96.4883 260.877 96.5812 260.934 96.6908" stroke="#FF3274" stroke-width="0.582496" stroke-linecap="round" stroke-linejoin="round"/>
<path d="M254.171 96.3158L254.221 101.536" stroke="#FF3274" stroke-width="0.582496" stroke-linecap="round" stroke-linejoin="round"/>
<path d="M256.322 96.3881L256.347 98.9258L256.372 101.608" stroke="#FF3274" stroke-width="0.582496" stroke-linecap="round" stroke-linejoin="round"/>
<path d="M258.73 96.3881L258.755 98.9258L258.78 101.608" stroke="#FF3274" stroke-width="0.582496" stroke-linecap="round" stroke-linejoin="round"/>
<path d="M226.035 262.199L202.169 251.512" stroke="white" stroke-width="0.582496" stroke-linecap="round" stroke-linejoin="round"/>
<path d="M320.473 240.575L307.668 254.319L297.382 255.677" stroke="white" stroke-width="0.582496" stroke-linecap="round" stroke-linejoin="round"/>
<path fill-rule="evenodd" clip-rule="evenodd" d="M195.769 90.7796C194.004 90.0355 194.227 85.8541 196.103 84.252C197.979 82.65 202.691 81.2645 204.546 76.2723C205.218 74.9146 207.228 76.8915 207.754 80.265C208.046 88.2918 199.642 92.4122 195.769 90.7796Z" fill="#AADAF1"/>
<path d="M204.165 81.1172C203.884 82.8886 200.167 90.8738 192.661 92.9062" stroke="#72A5BD" stroke-width="0.582496" stroke-linecap="round" stroke-linejoin="round"/>
<path d="M243.813 81.8947C242.673 82.8359 241.739 84.5851 241.831 84.9488C242.02 85.7013 243.807 86.9757 243.807 86.9757C243.807 86.9757 244.21 91.8012 247.699 93.953C248.925 94.7083 250.732 94.786 252.383 94.5778" stroke="#C9C9C9" stroke-width="0.582496" stroke-linecap="round" stroke-linejoin="round"/>
<path d="M322.366 239.698C323.798 232.903 323.283 210.872 319.366 192.591" stroke="#72A5BD" stroke-width="0.582496" stroke-linecap="round" stroke-linejoin="round"/>
</g>
<defs>
<linearGradient id="paint0_linear_208_5266" x1="214.5" y1="312" x2="124.156" y2="-2.344" gradientUnits="userSpaceOnUse">
<stop offset="0.158598" stop-color="#3F6A25"/>
<stop offset="1" stop-color="#A1E139" stop-opacity="0.63"/>
</linearGradient>
<clipPath id="clip0_208_5266">
<rect width="170.881" height="197.839" fill="white" transform="translate(15 62)"/>
</clipPath>
<clipPath id="clip1_208_5266">
<rect width="148.828" height="198.34" fill="white" transform="translate(192.37 66.66)"/>
</clipPath>
</defs>
</svg>
