<svg width="379" height="255" viewBox="0 0 379 255" fill="none" xmlns="http://www.w3.org/2000/svg">
<rect width="379" height="255" rx="56" fill="#D6E8CF"/>
<rect width="379" height="255" rx="56" fill="url(#paint0_linear_215_2278)" fill-opacity="0.3"/>
<g clip-path="url(#clip0_215_2278)">
<path d="M134.817 80.6906H118.26C118.105 80.6906 117.957 80.7519 117.848 80.8612C117.739 80.9704 117.677 81.1186 117.677 81.273V89.428C117.677 89.5825 117.739 89.7306 117.848 89.8399C117.957 89.9491 118.105 90.0105 118.26 90.0105H134.817C134.972 90.0105 135.12 89.9491 135.229 89.8399C135.338 89.7306 135.4 89.5825 135.4 89.428V81.273C135.4 81.1186 135.338 80.9704 135.229 80.8612C135.12 80.7519 134.972 80.6906 134.817 80.6906Z" stroke="#AADAF1" stroke-width="0.582496" stroke-linecap="round" stroke-linejoin="round"/>
<path d="M125.949 71.3502H109.394C109.24 71.3502 109.091 71.4116 108.982 71.5208C108.873 71.6301 108.812 71.7782 108.812 71.9327V80.0877C108.812 80.2422 108.873 80.3903 108.982 80.4995C109.091 80.6088 109.24 80.6702 109.394 80.6702H125.949C126.103 80.6702 126.251 80.6088 126.361 80.4995C126.47 80.3903 126.531 80.2422 126.531 80.0877V71.9327C126.531 71.7782 126.47 71.6301 126.361 71.5208C126.251 71.4116 126.103 71.3502 125.949 71.3502Z" stroke="#AADAF1" stroke-width="0.582496" stroke-linecap="round" stroke-linejoin="round"/>
<path d="M117.08 80.6906H100.526C100.371 80.6906 100.223 80.7519 100.114 80.8612C100.004 80.9704 99.9431 81.1186 99.9431 81.273V89.428C99.9431 89.5825 100.004 89.7306 100.114 89.8399C100.223 89.9491 100.371 90.0105 100.526 90.0105H117.08C117.235 90.0105 117.383 89.9491 117.492 89.8399C117.601 89.7306 117.663 89.5825 117.663 89.428V81.273C117.663 81.1186 117.601 80.9704 117.492 80.8612C117.383 80.7519 117.235 80.6906 117.08 80.6906Z" stroke="#AADAF1" stroke-width="0.582496" stroke-linecap="round" stroke-linejoin="round"/>
<path d="M143.403 90.028H126.849C126.694 90.028 126.546 90.0893 126.437 90.1986C126.327 90.3078 126.266 90.456 126.266 90.6105V98.7654C126.266 98.9199 126.327 99.068 126.437 99.1773C126.546 99.2865 126.694 99.3479 126.849 99.3479H143.403C143.558 99.3479 143.706 99.2865 143.815 99.1773C143.924 99.068 143.986 98.9199 143.986 98.7654V90.6105C143.986 90.456 143.924 90.3078 143.815 90.1986C143.706 90.0893 143.558 90.028 143.403 90.028Z" stroke="#AADAF1" stroke-width="0.582496" stroke-linecap="round" stroke-linejoin="round"/>
<path fill-rule="evenodd" clip-rule="evenodd" d="M115.941 190.22H172.042C172.412 190.22 172.768 190.368 173.03 190.63C173.292 190.892 173.44 191.248 173.44 191.618V191.618C173.439 191.989 173.291 192.343 173.029 192.605C172.767 192.867 172.412 193.013 172.042 193.013H115.941C115.571 193.013 115.216 192.867 114.954 192.605C114.692 192.343 114.544 191.989 114.543 191.618V191.618C114.543 191.248 114.691 190.892 114.953 190.63C115.215 190.368 115.571 190.22 115.941 190.22V190.22Z" fill="white"/>
<path fill-rule="evenodd" clip-rule="evenodd" d="M28.3951 198.632H84.504C84.6874 198.631 84.8689 198.667 85.0384 198.737C85.2078 198.807 85.3618 198.91 85.4914 199.039C85.621 199.169 85.7237 199.323 85.7937 199.492C85.8637 199.662 85.8995 199.843 85.8991 200.027V200.027C85.8995 200.21 85.8637 200.392 85.7937 200.561C85.7237 200.73 85.621 200.884 85.4914 201.014C85.3618 201.144 85.2078 201.246 85.0384 201.316C84.8689 201.386 84.6874 201.422 84.504 201.422H28.3951C28.0251 201.422 27.6702 201.275 27.4086 201.013C27.147 200.752 27 200.397 27 200.027V200.027C27 199.657 27.147 199.302 27.4086 199.04C27.6702 198.779 28.0251 198.632 28.3951 198.632V198.632Z" fill="white"/>
<path fill-rule="evenodd" clip-rule="evenodd" d="M150.635 191.31C145.957 191.312 141.382 192.683 137.474 195.255C133.567 197.827 130.498 201.486 128.646 205.782C127.139 204.566 125.263 203.899 123.327 203.888C121.391 203.878 119.508 204.526 117.989 205.726C116.934 203.214 115.197 201.048 112.974 199.473C110.751 197.898 108.132 196.978 105.412 196.816C102.693 196.654 99.9821 197.257 97.588 198.557C95.1939 199.857 93.2119 201.802 91.8668 204.171C90.4664 203.305 88.8905 202.763 87.2539 202.584C85.6173 202.404 83.9613 202.592 82.4065 203.134C80.8518 203.675 79.4375 204.557 78.2666 205.714C77.0957 206.872 76.1979 208.276 75.6384 209.824C75.8947 209.824 76.1365 209.751 76.3957 209.751H187.277C186.871 208.261 186.088 206.901 185.002 205.802C183.917 204.703 182.566 203.903 181.081 203.479C179.595 203.055 178.026 203.022 176.524 203.383C175.022 203.743 173.639 204.485 172.508 205.537C170.629 201.304 167.562 197.707 163.68 195.182C159.798 192.656 155.266 191.311 150.635 191.31V191.31Z" fill="#DEDEDE"/>
<path fill-rule="evenodd" clip-rule="evenodd" d="M69.63 206.961H196.486C196.856 206.962 197.211 207.11 197.473 207.372C197.734 207.634 197.881 207.989 197.881 208.359V208.359C197.88 208.729 197.733 209.083 197.472 209.345C197.21 209.606 196.856 209.753 196.486 209.754H69.63C69.2602 209.753 68.9058 209.606 68.6444 209.345C68.3829 209.083 68.2357 208.729 68.2349 208.359V208.359C68.2349 207.989 68.3818 207.634 68.6434 207.372C68.9049 207.11 69.2597 206.962 69.63 206.961V206.961Z" fill="#DEDEDE"/>
<path fill-rule="evenodd" clip-rule="evenodd" d="M49.0387 190.963L45.3486 196.133L52.9502 205.659L56.4452 199.543L49.0387 190.963Z" fill="#F77F89"/>
<path fill-rule="evenodd" clip-rule="evenodd" d="M45.0079 193.782L36.2704 203.877L49.997 219.896C49.997 219.896 59.1072 219.797 61.9848 219.797C61.9265 216.302 59.3868 209.061 52.3153 209.341C53.7424 206.836 54.756 204.771 54.756 204.771L45.0079 193.782Z" fill="#6367FD"/>
<path d="M52.3094 209.349C48.3572 208.129 46.5602 209.719 43.7875 212.661C41.8507 214.717 37.814 214.542 35.3413 213.363" stroke="#4C4FD9" stroke-width="0.582496" stroke-linecap="round" stroke-linejoin="round"/>
<path d="M43.2516 222.188C44.5542 222.747 45.8991 223.202 47.2738 223.548C50.8911 220.344 53.0318 212.74 52.3532 209.349" stroke="#4C4FD9" stroke-width="0.582496" stroke-linecap="round" stroke-linejoin="round"/>
<path d="M41.4779 197.755C42.3325 198.402 42.9951 199.269 43.3948 200.263C43.7944 201.258 43.9161 202.342 43.7467 203.401C43.5774 204.459 43.1234 205.451 42.4333 206.271C41.7433 207.091 40.8432 207.708 39.8295 208.056" stroke="#4C4FD9" stroke-width="0.582496" stroke-linecap="round" stroke-linejoin="round"/>
<path d="M37.7936 202.109L51.3046 216.864L61.3148 216.281" stroke="#4C4FD9" stroke-width="0.582496" stroke-linecap="round" stroke-linejoin="round"/>
<path fill-rule="evenodd" clip-rule="evenodd" d="M70.8212 148.249L47.7194 190.587L56.5646 200.941L98.3092 157.866L89.1466 144.917L70.8212 148.249Z" fill="#F7D167"/>
<path d="M61.3673 195.987L51.0629 184.457" stroke="#FF3274" stroke-width="0.582496" stroke-linecap="round" stroke-linejoin="round"/>
<path fill-rule="evenodd" clip-rule="evenodd" d="M89.1436 144.919L70.8241 148.251L61.5042 165.345L77.5024 164.963L82.7187 173.954L98.3092 157.871L89.1436 144.919Z" fill="#BF9111"/>
<path d="M51.628 195.163C61.0936 184.075 90.0727 150.281 90.0727 150.281" stroke="#FF3274" stroke-width="0.582496" stroke-linecap="round" stroke-linejoin="round"/>
<path fill-rule="evenodd" clip-rule="evenodd" d="M114.543 204.855L117.334 210.68L129.84 208.417L127.772 201.401L114.543 204.855Z" fill="#F77F89"/>
<path fill-rule="evenodd" clip-rule="evenodd" d="M115.478 210.704L119.751 222.936C119.751 222.936 144.469 217.985 146.348 217.499C142.853 209.285 135.682 210.663 132.537 211.449C131.748 209.953 131.044 208.414 130.428 206.839L115.478 210.704Z" fill="#6367FD"/>
<path d="M132.327 208.636C132.834 206.987 134.01 205.889 134.948 206.181C135.886 206.472 136.247 208.039 135.74 209.676C135.234 211.313 134.057 212.419 133.119 212.131C132.181 211.843 131.82 210.281 132.327 208.636Z" stroke="#4C4FD9" stroke-width="0.582496" stroke-linecap="round" stroke-linejoin="round"/>
<path d="M136.469 208.426C137.779 207.084 139.41 206.661 140.115 207.486C140.82 208.31 140.325 210.066 139.014 211.409C137.703 212.751 136.072 213.177 135.368 212.352C134.663 211.528 135.158 209.778 136.469 208.426Z" stroke="#4C4FD9" stroke-width="0.582496" stroke-linecap="round" stroke-linejoin="round"/>
<path fill-rule="evenodd" clip-rule="evenodd" d="M125.066 112.384C126.616 113.637 128.223 115.128 130.288 115.908C133.376 116.657 139.026 122.849 139.026 124.183C139.026 125.447 137.899 125.872 137.197 125.93C136.591 125.968 135.301 124.567 134.974 124.168C135.537 125.45 135.863 127.185 135.239 127.73C134.616 128.275 133.719 128.464 133.108 127.759C132.103 126.594 132.35 125.272 132.257 124.497C131.762 123.551 130.414 121.445 129.843 121.189C129.444 121.209 128.844 121.349 128.73 121.987C128.617 122.625 130.099 124.049 130.265 124.643C130.265 125.397 129.441 126.355 128.73 126.166C127.92 125.951 125.416 123.519 124.862 122.855C124.117 121.96 123.779 120.012 123.38 119.36C122.981 118.707 121.431 117.321 121.143 117.03C120.855 116.738 123.52 111.129 125.066 112.384Z" fill="#F77F89"/>
<path fill-rule="evenodd" clip-rule="evenodd" d="M109.601 81.8526C115.167 86.5796 123.496 105.196 128.85 109.778C128.29 112.652 119.422 123.358 113.154 120.807C105.302 117.609 105.398 78.2848 109.601 81.8526Z" fill="#3B4161"/>
<path fill-rule="evenodd" clip-rule="evenodd" d="M113.926 108.388L130.428 202.092L113.14 206.169L90.4368 146.597L96.0753 105.196L113.926 108.388Z" fill="#F7D167"/>
<path d="M99.3548 169.996L91.2377 148.694" stroke="#FF3274" stroke-width="0.582496" stroke-linecap="round" stroke-linejoin="round"/>
<path d="M120.657 204.398L93.9871 120.53" stroke="#FF3274" stroke-width="0.582496" stroke-linecap="round" stroke-linejoin="round"/>
<path d="M115.388 116.701C113.058 117.676 101.117 119.881 96.5035 119.398" stroke="#FF3274" stroke-width="0.582496" stroke-linecap="round" stroke-linejoin="round"/>
<path fill-rule="evenodd" clip-rule="evenodd" d="M65.3137 94.3386L96.6258 97.6618C98.4927 97.8598 99.8295 99.619 99.6256 101.594L94.5405 149.489C94.3308 151.461 92.6503 152.9 90.7834 152.693L59.4713 149.382C57.6044 149.184 56.2675 147.424 56.4714 145.45L61.5537 97.554C61.7634 95.5793 63.4468 94.1522 65.3137 94.3386Z" fill="#6367FD"/>
<path d="M66.3418 123.522C66.3418 121.16 67.0421 118.851 68.3542 116.887C69.6664 114.924 71.5313 113.393 73.7133 112.489C75.8952 111.586 78.2962 111.349 80.6126 111.81C82.9289 112.271 85.0567 113.408 86.7267 115.078C88.3967 116.748 89.5339 118.876 89.9947 121.192C90.4555 123.508 90.219 125.909 89.3152 128.091C88.4114 130.273 86.8809 132.138 84.9171 133.45C82.9534 134.762 80.6447 135.463 78.283 135.463C75.116 135.463 72.0787 134.205 69.8393 131.965C67.5999 129.726 66.3418 126.689 66.3418 123.522Z" stroke="#4C4FD9" stroke-width="0.582496" stroke-linecap="round" stroke-linejoin="round"/>
<path fill-rule="evenodd" clip-rule="evenodd" d="M77.5141 40.8245C77.5141 37.8509 79.1888 35.4393 81.2566 35.4393C83.3245 35.4393 85.0021 37.8509 85.0021 40.8245C85.0021 43.7982 83.3245 46.2097 81.2566 46.2097C79.1888 46.2097 77.5141 43.7982 77.5141 40.8245Z" fill="#F77F89"/>
<path fill-rule="evenodd" clip-rule="evenodd" d="M79.6227 43.6496C79.6227 41.2837 80.3244 38.9709 81.6388 37.0038C82.9533 35.0366 84.8216 33.5035 87.0075 32.5982C89.1934 31.693 91.5986 31.4563 93.919 31.918C96.2394 32.3798 98.3707 33.5193 100.043 35.1925C101.716 36.8656 102.855 38.9972 103.316 41.3178C103.778 43.6383 103.54 46.0434 102.635 48.2291C101.729 50.4147 100.195 52.2826 98.2277 53.5966C96.2602 54.9107 93.9473 55.6117 91.5814 55.6111C90.0107 55.6111 88.4554 55.3017 87.0043 54.7005C85.5533 54.0994 84.2348 53.2183 83.1243 52.1075C82.0138 50.9967 81.133 49.6781 80.5322 48.2268C79.9314 46.7756 79.6224 45.2202 79.6227 43.6496V43.6496Z" fill="#F77F89"/>
<path fill-rule="evenodd" clip-rule="evenodd" d="M75.5744 119.98C75.0181 121.835 73.2153 125.694 74.9308 132.6C71.6804 137.624 73.1978 141.163 80.6421 142.051C81.8945 140.522 83.1498 139.52 84.5478 137.312C85.0021 135.326 84.9613 132.277 85.0021 131.449C85.0808 129.778 82.6314 123.163 83.2401 120.193C83.8488 117.222 76.1307 118.122 75.5744 119.98Z" fill="#F77F89"/>
<path fill-rule="evenodd" clip-rule="evenodd" d="M90.4164 59.6246C73.2094 59.6246 66.6592 95.7831 68.5378 118.92C72.1056 121.171 86.3447 122.048 90.4164 120.979C91.2901 116.916 91.5814 99.913 91.7765 97.1461C101.28 98.0781 99.6402 99.5489 98.4927 112.268C103.444 112.44 110.113 111.103 115.094 109.012C115.793 100.292 110.667 59.6246 90.4164 59.6246Z" fill="#3B4161"/>
<path d="M66.3418 96.5315L68.6135 74.7898C68.9689 71.3888 70.6607 68.2682 73.3169 66.1146C75.973 63.9609 79.3759 62.9506 82.7769 63.3059L85.2147 63.5593C88.6157 63.9146 91.7363 65.6065 93.8899 68.2626C96.0436 70.9188 97.0539 74.3217 96.6986 77.7227L94.3686 100.076" stroke="#6367FD" stroke-width="1.97175" stroke-linecap="round" stroke-linejoin="round"/>
<path fill-rule="evenodd" clip-rule="evenodd" d="M83.3769 50.6484C84.2739 54.5016 84.4982 59.9276 84.3497 62.0595C86.6301 63.4051 92.5425 64.34 95.3851 60.5247C94.0395 57.2714 93.7395 55.6987 93.8531 53.8259C93.9667 51.9532 82.4799 46.7952 83.3769 50.6484Z" fill="#F77F89"/>
<path fill-rule="evenodd" clip-rule="evenodd" d="M87.1893 54.7783C86.936 52.7104 88.4242 47.8437 89.2747 47.168C97.2694 47.4592 102.232 41.7653 103.039 40.2072C103.785 41.1979 104.329 42.3262 104.638 43.5274C104.845 44.3196 104.664 44.8759 103.31 46.0117C102.966 50.6804 98.7286 58.0927 87.1893 54.7783Z" fill="white"/>
<path d="M89.9096 47.6601C89.9096 47.6601 82.6284 41.7012 80.5139 41.4099" stroke="white" stroke-width="0.888307" stroke-linecap="round" stroke-linejoin="round"/>
<path fill-rule="evenodd" clip-rule="evenodd" d="M95.8481 41.4187C95.8481 40.3819 96.186 39.5402 96.6025 39.5402C97.019 39.5402 97.3568 40.3819 97.3568 41.4187C97.3568 42.4556 97.019 43.2973 96.6025 43.2973C96.186 43.2973 95.8481 42.4556 95.8481 41.4187Z" fill="#CB5D66"/>
<path d="M91.0571 114.513C88.2874 114.912 73.2182 114.26 68.2349 112.209" stroke="#737999" stroke-width="0.582496" stroke-linecap="round" stroke-linejoin="round"/>
<path d="M91.7765 97.1462C91.5813 91.4464 96.7685 72.9405 86.5165 65.3302" stroke="#737999" stroke-width="0.582496" stroke-linecap="round" stroke-linejoin="round"/>
<path d="M91.7794 97.1141L86.5165 99.3684" stroke="#737999" stroke-width="0.582496" stroke-linecap="round" stroke-linejoin="round"/>
<path d="M86.7466 96.613L91.794 96.9684" stroke="#737999" stroke-width="0.582496" stroke-linecap="round" stroke-linejoin="round"/>
<path d="M87.4952 93.0629L91.7998 96.9306" stroke="#737999" stroke-width="0.582496" stroke-linecap="round" stroke-linejoin="round"/>
<path d="M115.108 109.006C115.4 105.193 114.596 95.2764 111.905 85.3215" stroke="#737999" stroke-width="0.582496" stroke-linecap="round" stroke-linejoin="round"/>
<path d="M124.891 105.158C122.561 109.271 117.028 113.712 115.018 114.595" stroke="#737999" stroke-width="0.582496" stroke-linecap="round" stroke-linejoin="round"/>
<path d="M108.692 118.276C108.448 116.802 107.568 111.33 107.568 111.33" stroke="#FF3274" stroke-width="0.582496" stroke-linecap="round" stroke-linejoin="round"/>
<path d="M129.4 196.264L110.501 199.246" stroke="#FF3274" stroke-width="0.582496" stroke-linecap="round" stroke-linejoin="round"/>
<path d="M123.986 165.307C123.651 165.344 123.315 165.363 122.978 165.362C120.748 165.363 118.595 164.546 116.926 163.067C115.257 161.588 114.188 159.549 113.92 157.335C113.653 155.121 114.206 152.885 115.474 151.051C116.743 149.217 118.639 147.911 120.805 147.381" stroke="#FF3274" stroke-width="0.582496" stroke-linecap="round" stroke-linejoin="round"/>
<path d="M118.938 220.615L145.375 215.603" stroke="#4C4FD9" stroke-width="0.582496" stroke-linecap="round" stroke-linejoin="round"/>
<path d="M116.824 214.869C117.72 214.517 118.688 214.39 119.644 214.498C120.601 214.606 121.516 214.945 122.311 215.488C123.107 216.03 123.757 216.758 124.207 217.609C124.657 218.46 124.891 219.408 124.891 220.37C124.892 220.883 124.827 221.394 124.696 221.891" stroke="#4C4FD9" stroke-width="0.582496" stroke-linecap="round" stroke-linejoin="round"/>
<path d="M87.3146 54.3413C86.4001 53.9947 82.7246 52.7132 80.814 48.8629" stroke="white" stroke-width="0.888307" stroke-linecap="round" stroke-linejoin="round"/>
<path fill-rule="evenodd" clip-rule="evenodd" d="M77.2986 45.9272C77.298 45.1648 77.5236 44.4194 77.9468 43.7853C78.3699 43.1512 78.9717 42.6569 79.6759 42.3649C80.3801 42.0729 81.1551 41.9964 81.9028 42.1449C82.6505 42.2935 83.3374 42.6606 83.8764 43.1996C84.4155 43.7387 84.7825 44.4255 84.9311 45.1733C85.0797 45.921 85.0032 46.696 84.7111 47.4002C84.4191 48.1044 83.9248 48.7061 83.2907 49.1293C82.6566 49.5525 81.9112 49.778 81.1489 49.7775C80.128 49.7767 79.1491 49.3708 78.4272 48.6489C77.7053 47.927 77.2994 46.9481 77.2986 45.9272V45.9272Z" fill="#F77F89"/>
<path d="M84.8332 47.0543C84.5913 47.8427 84.1029 48.5328 83.4397 49.0229C82.7765 49.5131 81.9735 49.7776 81.1489 49.7775" stroke="#CB5D66" stroke-width="0.582496" stroke-linecap="round" stroke-linejoin="round"/>
<path d="M78.1111 43.5595C78.6671 42.8454 79.4571 42.3504 80.3421 42.1615" stroke="#CB5D66" stroke-width="0.582496" stroke-linecap="round" stroke-linejoin="round"/>
<path fill-rule="evenodd" clip-rule="evenodd" d="M87.2884 26.6233C85.6393 27.0031 84.0811 27.7041 82.7029 28.6861C81.3247 29.6682 80.1535 30.9122 79.2561 32.3469C78.3587 33.7817 77.7528 35.3792 77.4729 37.0482C77.193 38.7172 77.2446 40.425 77.6248 42.074L102.739 36.2869C102.359 34.6378 101.658 33.0796 100.676 31.7015C99.6942 30.3233 98.4502 29.152 97.0154 28.2547C95.5807 27.3573 93.9832 26.7513 92.3142 26.4714C90.6452 26.1915 88.9374 26.2431 87.2884 26.6233V26.6233Z" fill="#F2E283"/>
<path fill-rule="evenodd" clip-rule="evenodd" d="M93.1919 34.4259L111.34 30.2435C112.842 29.894 114.252 30.4794 114.508 31.5425C114.753 32.6085 113.734 33.7531 112.228 34.1026L94.0803 38.2849C92.5745 38.6315 91.1678 38.049 90.9115 36.983C90.6639 35.9171 91.6862 34.7724 93.1919 34.4259Z" fill="#F2E283"/>
<path d="M74.4006 139.709C75.1761 138.887 75.8714 137.992 76.4772 137.038" stroke="#CB5D66" stroke-width="0.582496" stroke-linecap="round" stroke-linejoin="round"/>
<path d="M77.616 141.454C78.8393 140.271 80.6304 137.775 81.545 136.278" stroke="#CB5D66" stroke-width="0.582496" stroke-linecap="round" stroke-linejoin="round"/>
<path d="M129.08 121.413C130.914 119.89 133.777 123.009 135.079 124.267" stroke="#CB5D66" stroke-width="0.582496" stroke-linecap="round" stroke-linejoin="round"/>
<path d="M81.8158 47.4942C81.6058 47.587 81.3785 47.6347 81.1489 47.6339C80.893 47.6343 80.6405 47.5756 80.4111 47.4623C80.1817 47.3489 79.9816 47.1841 79.8264 46.9807C79.6712 46.7772 79.5651 46.5407 79.5165 46.2895C79.4678 46.0383 79.4779 45.7792 79.5459 45.5326C79.6139 45.2859 79.7381 45.0583 79.9086 44.8675C80.0791 44.6767 80.2914 44.528 80.5289 44.4328C80.7664 44.3376 81.0227 44.2987 81.2778 44.3189C81.5329 44.3392 81.7798 44.4182 81.9993 44.5496" stroke="#CB5D66" stroke-width="0.582496" stroke-linecap="round" stroke-linejoin="round"/>
<path d="M93.4221 26.7048C91.6226 26.239 89.7437 26.1677 87.9142 26.4959C86.0846 26.8241 84.3476 27.544 82.8223 28.6063C81.2969 29.6685 80.0193 31.048 79.0769 32.6502C78.1346 34.2524 77.5498 36.0394 77.3627 37.8888" stroke="#FF3274" stroke-width="0.582496" stroke-linecap="round" stroke-linejoin="round"/>
<path d="M103.039 40.2072C103.785 41.1979 104.329 42.3262 104.638 43.5274C104.845 44.3196 104.664 44.8759 103.31 46.0117C103.042 49.6319 100.435 54.9006 93.8997 55.5414" stroke="#C9C9C9" stroke-width="0.582496" stroke-linecap="round" stroke-linejoin="round"/>
</g>
<g clip-path="url(#clip1_215_2278)">
<path fill-rule="evenodd" clip-rule="evenodd" d="M343.807 143.078C328.322 142.853 320.683 198.672 321.984 202.684C322.281 203.598 322.988 204.6 323.894 205.558H337.516C339.573 201.168 342.52 192.231 344.835 182.357L340.943 180.186L345.858 177.715C346.941 172.634 347.702 167.49 348.138 162.314L344.318 161.434L346.42 158.379L344.007 157.824L348.135 153.357C347.69 148.512 346.417 144.733 343.807 143.078Z" fill="#AADAF1"/>
<path d="M343.768 143.081L329.671 205.552" stroke="#72A5BD" stroke-width="0.582496" stroke-linecap="round" stroke-linejoin="round"/>
<path fill-rule="evenodd" clip-rule="evenodd" d="M315.81 129.723C296.906 136.759 310.027 198.706 313.8 205.375H333.799C333.827 205.322 333.868 205.28 333.893 205.228C336.117 200.71 335.578 170.144 329.551 149.289L324.58 149.403L327.972 144.466C325.034 136.367 321.064 130.473 315.81 129.723Z" fill="#AADAF1"/>
<path d="M298.73 205.561H352.939" stroke="#72A5BD" stroke-width="0.582496" stroke-linecap="round" stroke-linejoin="round"/>
<path d="M315.765 129.743L324.92 205.414" stroke="#72A5BD" stroke-width="0.582496" stroke-linecap="round" stroke-linejoin="round"/>
<path fill-rule="evenodd" clip-rule="evenodd" d="M312.718 197.528C314.664 198.939 320.555 203.695 320.875 204.986C321.194 206.277 317.978 214.876 317.289 215.498C316.599 216.12 309.766 217.772 309.441 218.213C309.116 218.655 309.377 220.004 309.702 220.668C310.027 221.331 320.48 220.582 320.48 220.582C320.48 220.582 334.049 207.193 333.879 206.199C333.71 205.205 318.487 191.484 318.487 191.484C318.487 191.484 310.778 196.121 312.718 197.528Z" fill="#F77F89"/>
<path fill-rule="evenodd" clip-rule="evenodd" d="M327.789 200.06C327.269 203.57 325.428 208.865 319.66 209.884C318.765 212.488 317.664 215.159 317.286 215.498C316.596 216.117 309.766 217.772 309.441 218.213C309.116 218.655 309.382 220.004 309.702 220.668C310.022 221.331 320.477 220.582 320.477 220.582C320.477 220.582 334.055 207.199 333.882 206.205C333.81 205.786 330.935 203.015 327.789 200.06Z" fill="#6367FD"/>
<path fill-rule="evenodd" clip-rule="evenodd" d="M245.382 209.306C244.693 211.133 237.301 228.625 236.517 228.992C235.733 229.358 213.835 218.691 213.668 217.638C213.502 216.586 214.502 214.354 215.292 214.515C223.657 216.181 233.834 216.75 234.944 214.643C236.053 212.535 237.479 207.637 237.479 207.637C237.479 207.637 246.083 207.493 245.382 209.306Z" fill="#F77F89"/>
<path fill-rule="evenodd" clip-rule="evenodd" d="M215.289 214.515C214.489 214.357 213.491 216.589 213.666 217.639C213.841 218.688 235.727 229.367 236.514 228.989C236.862 228.82 238.569 225.141 240.362 221.084C233.604 222.103 230.009 218.941 228.486 215.984C224.052 215.886 219.636 215.394 215.289 214.515V214.515Z" fill="#6367FD"/>
<path fill-rule="evenodd" clip-rule="evenodd" d="M266.073 158.954C288.408 186.611 310.111 201.346 310.111 201.346L321.664 189.685L288.305 150.919C288.305 150.919 291.04 120.994 285.247 115.505C279.453 110.016 252.029 141.565 266.073 158.954Z" fill="#C4C4C4"/>
<path fill-rule="evenodd" clip-rule="evenodd" d="M256.663 113.714L233.756 207.215L246.175 213.324C246.175 213.324 266.971 158.627 270.046 155.295C276.373 148.451 286.642 123.837 285.744 114.311C284.847 104.784 256.663 113.714 256.663 113.714Z" fill="#C4C4C4"/>
<path fill-rule="evenodd" clip-rule="evenodd" d="M296.57 120.247C297.101 122.015 298.821 125.694 297.184 132.277C300.286 137.067 298.838 140.44 291.732 141.287C290.537 139.83 289.336 138.872 288.005 136.77C287.571 134.876 287.61 131.969 287.571 131.181C287.496 129.587 290.737 122.537 290.156 119.705C289.575 116.873 296.036 118.475 296.57 120.247Z" fill="#F77F89"/>
<path d="M297.69 139.055C296.949 138.272 296.285 137.419 295.708 136.509" stroke="#CB5D66" stroke-width="0.582496" stroke-linecap="round" stroke-linejoin="round"/>
<path d="M294.618 140.718C293.45 139.591 291.744 137.211 290.868 135.784" stroke="#CB5D66" stroke-width="0.582496" stroke-linecap="round" stroke-linejoin="round"/>
<path fill-rule="evenodd" clip-rule="evenodd" d="M237.493 113.233C236.014 114.43 234.479 115.852 232.508 116.596C229.561 117.307 224.168 123.212 224.168 124.484C224.168 125.689 225.244 126.094 225.914 126.15C226.492 126.186 227.724 124.85 228.035 124.47C227.499 125.692 227.201 127.346 227.782 127.866C228.363 128.385 229.233 128.565 229.814 127.893C230.776 126.783 230.54 125.522 230.629 124.784C231.102 123.881 232.389 121.874 232.934 121.63C233.314 121.649 233.887 121.782 233.995 122.39C234.104 122.998 232.689 124.356 232.53 124.923C232.53 125.642 233.314 126.555 233.995 126.375C234.768 126.169 237.159 123.851 237.687 123.218C238.399 122.365 238.721 120.505 239.102 119.886C239.483 119.267 240.962 117.942 241.237 117.665C241.512 117.387 238.969 112.04 237.493 113.233Z" fill="#F77F89"/>
<path d="M233.662 121.843C231.911 120.391 229.178 123.365 227.935 124.564" stroke="#CB5D66" stroke-width="0.582496" stroke-linecap="round" stroke-linejoin="round"/>
<path fill-rule="evenodd" clip-rule="evenodd" d="M260.452 65.644C254.726 71.111 251.921 84.802 250.397 93.6146C245.374 98.5512 235.258 109.482 235.266 112.106C235.274 114.73 240.212 119.111 241.468 119.081C242.725 119.05 254.423 106.264 256.241 104.771C258.059 103.277 261.817 64.3363 260.452 65.644Z" fill="#F7D167"/>
<path fill-rule="evenodd" clip-rule="evenodd" d="M258.334 43.1543C257.564 42.463 256.257 42.1964 256.257 38.3926C256.257 34.3417 261.095 30.66 267.255 30.66C276.929 30.66 279.74 39.1339 280.073 42.1298C280.407 45.1257 279.881 52.2141 280.554 55.0933C281.905 60.9851 287.579 65.533 287.579 75.3785C287.579 78.3716 274.58 75.7783 272.253 75.4313C269.926 75.0842 267.21 59.6718 267.21 59.6718C267.21 59.6718 259.104 43.8457 258.334 43.1543Z" fill="black"/>
<path fill-rule="evenodd" clip-rule="evenodd" d="M273.11 52.2139C272.645 54.0853 272.579 62.09 272.923 64.761C271.347 65.891 265.481 65.7605 264.258 64.5361C264.628 61.2376 264.628 58.3028 264.258 56.8757C263.888 55.4486 273.574 50.3425 273.11 52.2139Z" fill="#F77F89"/>
<path fill-rule="evenodd" clip-rule="evenodd" d="M255.813 46.3417C255.813 39.9335 260.455 34.7386 266.185 34.7386C271.914 34.7386 276.557 39.9335 276.557 46.3417C276.557 52.7499 271.914 57.9419 266.185 57.9419C260.455 57.9419 255.813 52.7471 255.813 46.3417Z" fill="#F77F89"/>
<path fill-rule="evenodd" clip-rule="evenodd" d="M268.217 57.3311C268.064 55.3487 266.432 51.0423 265.581 50.5286C264.731 50.015 258.053 49.2265 255.813 45.8947C254.673 46.8359 253.739 48.5851 253.831 48.9488C254.02 49.7013 255.807 50.9757 255.807 50.9757C255.807 50.9757 256.21 55.8012 259.699 57.953C262.22 59.5134 267.21 58.239 268.217 57.3311Z" fill="white"/>
<path d="M265.362 51.1728C266.527 49.2293 269.646 46.686 271.305 45.9752" stroke="white" stroke-width="0.582496" stroke-linecap="round" stroke-linejoin="round"/>
<path d="M266.894 54.0687C266.894 54.0687 273.496 55.0766 274.566 52.214" stroke="white" stroke-width="0.582496" stroke-linecap="round" stroke-linejoin="round"/>
<path fill-rule="evenodd" clip-rule="evenodd" d="M260.497 35.4689C261.856 36.6961 262.457 39.7614 263.699 41.2996C265.715 43.7985 269.59 44.2233 270.783 47.519C271.975 50.8147 278.216 48.152 278.216 48.152L277.416 40.3167L272.793 35.4884L265.604 33.4365C265.604 33.4365 259.149 34.2389 260.497 35.4689Z" fill="black"/>
<path fill-rule="evenodd" clip-rule="evenodd" d="M269.001 49.2265C269.001 48.4434 269.233 47.6779 269.669 47.0268C270.104 46.3757 270.724 45.8683 271.448 45.5686C272.172 45.2689 272.969 45.1905 273.738 45.3433C274.507 45.4961 275.214 45.8731 275.768 46.4269C276.322 46.9806 276.7 47.6861 276.853 48.4541C277.006 49.2221 276.927 50.0182 276.627 50.7417C276.327 51.4651 275.819 52.0835 275.167 52.5186C274.515 52.9536 273.749 53.1858 272.965 53.1858C271.914 53.1851 270.906 52.7677 270.163 52.0254C269.419 51.283 269.001 50.2764 269.001 49.2265V49.2265Z" fill="#F77F89"/>
<path fill-rule="evenodd" clip-rule="evenodd" d="M260.311 45.5365C260.311 44.7341 260.664 44.0844 261.097 44.0844C261.531 44.0844 261.887 44.7341 261.887 45.5365C261.887 46.3389 261.534 46.9886 261.097 46.9886C260.661 46.9886 260.311 46.3389 260.311 45.5365Z" fill="#CB5D66"/>
<path fill-rule="evenodd" clip-rule="evenodd" d="M268.692 60.4214C285.714 60.4214 297.573 92.6567 298.807 97.5461C300.042 102.436 299.085 120.264 298.643 121.618C296.956 121.949 290.86 120.833 289.592 120.072C288.48 118.217 288.071 104.16 287.618 102.885C287.299 101.813 286.736 100.828 285.972 100.009C286.467 103.79 285.931 113.075 285.603 114.43C285.275 115.785 258.854 115.721 256.85 114.883C255.593 114.358 254.706 113.811 254.528 112.545C254.25 110.454 255.101 109.071 254.87 107.325C254.639 105.579 253.658 105.309 253.361 102.466C253.052 99.4897 255.062 95.5248 254.403 92.5873C250.923 77.0471 259.268 60.4214 268.692 60.4214Z" fill="#F7D167"/>
<path fill-rule="evenodd" clip-rule="evenodd" d="M265.031 60.3158H272.342C272.773 60.3158 273.123 60.81 273.123 61.4264V64.4417C273.123 65.0497 272.773 65.5523 272.342 65.5523H265.031C264.597 65.5523 264.247 65.0581 264.247 64.4417V61.4181C264.247 60.81 264.597 60.3158 265.031 60.3158Z" fill="#F7D167"/>
<path d="M236.511 208.57L263.922 118.084" stroke="#8D8D8D" stroke-width="0.582496" stroke-linecap="round" stroke-linejoin="round"/>
<path d="M248.201 208.037L235.135 201.573" stroke="#8D8D8D" stroke-width="0.582496" stroke-linecap="round" stroke-linejoin="round"/>
<path d="M262.732 159.648C261.406 160.412 258.587 160.007 257.214 159.093" stroke="#8D8D8D" stroke-width="0.582496" stroke-linecap="round" stroke-linejoin="round"/>
<path d="M259.09 151.846L264.892 157.308" stroke="#8D8D8D" stroke-width="0.582496" stroke-linecap="round" stroke-linejoin="round"/>
<path d="M267.255 160.648C268.553 157.782 269.54 155.839 270.035 155.292C275.675 149.184 284.452 128.962 285.653 117.895" stroke="#8D8D8D" stroke-width="0.582496" stroke-linecap="round" stroke-linejoin="round"/>
<path d="M314.005 197.412C314.005 197.412 276.615 161.761 274.878 160.365C274.766 157.866 274.6 152.999 272.868 151.505" stroke="#8D8D8D" stroke-width="0.582496" stroke-linecap="round" stroke-linejoin="round"/>
<path d="M287.476 153.176C286.278 153.995 284.229 156.919 284.096 158.607" stroke="#8D8D8D" stroke-width="0.582496" stroke-linecap="round" stroke-linejoin="round"/>
<path d="M286.114 152.049C285.444 152.238 283.509 153.337 283.015 154.229" stroke="#8D8D8D" stroke-width="0.582496" stroke-linecap="round" stroke-linejoin="round"/>
<path d="M286.173 150.453L283.746 150.272L279.72 148.753" stroke="#8D8D8D" stroke-width="0.582496" stroke-linecap="round" stroke-linejoin="round"/>
<path d="M286.089 150.447L283.865 150.28" stroke="#8D8D8D" stroke-width="0.582496" stroke-linecap="round" stroke-linejoin="round"/>
<path d="M318.05 185.478L305.018 197.578" stroke="#8D8D8D" stroke-width="0.582496" stroke-linecap="round" stroke-linejoin="round"/>
<path d="M254.917 120.844C254.917 120.844 264.595 122.593 270.577 121.777" stroke="#8D8D8D" stroke-width="0.582496" stroke-linecap="round" stroke-linejoin="round"/>
<path d="M256.052 115.343C255.218 114.902 254.662 114.355 254.528 113.375C254.25 111.287 255.101 109.902 254.87 108.158C254.639 106.414 253.658 106.142 253.361 103.299C253.052 100.323 255.062 96.3577 254.403 93.4201C253.185 87.8083 253.355 81.9844 254.898 76.4529" stroke="#FF3274" stroke-width="0.582496" stroke-linecap="round" stroke-linejoin="round"/>
<path d="M244.348 116.754C243.331 116.174 238.115 111.429 236.867 108.88" stroke="#FF3274" stroke-width="0.582496" stroke-linecap="round" stroke-linejoin="round"/>
<path d="M242.983 115.685L240.284 118.575" stroke="#FF3274" stroke-width="0.582496" stroke-linecap="round" stroke-linejoin="round"/>
<path d="M241.248 114.349L238.552 117.243" stroke="#FF3274" stroke-width="0.582496" stroke-linecap="round" stroke-linejoin="round"/>
<path d="M239.564 112.795L237.015 115.527" stroke="#FF3274" stroke-width="0.582496" stroke-linecap="round" stroke-linejoin="round"/>
<path d="M238.216 111.032L235.73 113.694" stroke="#FF3274" stroke-width="0.582496" stroke-linecap="round" stroke-linejoin="round"/>
<path d="M299.08 118.065L288.794 116.954" stroke="#FF3274" stroke-width="0.582496" stroke-linecap="round" stroke-linejoin="round"/>
<path d="M297.381 117.881L297.103 122.482" stroke="#FF3274" stroke-width="0.582496" stroke-linecap="round" stroke-linejoin="round"/>
<path d="M294.81 117.601L294.415 122.16" stroke="#FF3274" stroke-width="0.582496" stroke-linecap="round" stroke-linejoin="round"/>
<path d="M292.28 117.326L291.983 121.68" stroke="#FF3274" stroke-width="0.582496" stroke-linecap="round" stroke-linejoin="round"/>
<path d="M299.636 106.164C298.107 106.163 296.626 105.632 295.446 104.662C294.266 103.691 293.459 102.342 293.164 100.844C292.868 99.3457 293.103 97.7917 293.827 96.447C294.551 95.1023 295.72 94.0502 297.134 93.4702" stroke="#FF3274" stroke-width="0.582496" stroke-linecap="round" stroke-linejoin="round"/>
<path d="M285.975 100.842C285.063 99.3479 274.449 82.6222 273.899 81.9614" stroke="#FF3274" stroke-width="0.582496" stroke-linecap="round" stroke-linejoin="round"/>
<path d="M271.492 82.0421L273.91 81.8977" stroke="#FF3274" stroke-width="0.582496" stroke-linecap="round" stroke-linejoin="round"/>
<path d="M271.845 84.7242L273.882 81.9005" stroke="#FF3274" stroke-width="0.582496" stroke-linecap="round" stroke-linejoin="round"/>
<path d="M273.557 86.1902L273.871 81.9421" stroke="#FF3274" stroke-width="0.582496" stroke-linecap="round" stroke-linejoin="round"/>
<path d="M259.646 108.125L267.11 104.485" stroke="#FF3274" stroke-width="0.582496" stroke-linecap="round" stroke-linejoin="round"/>
<path d="M266.983 103.505L257.139 105.479" stroke="#FF3274" stroke-width="0.582496" stroke-linecap="round" stroke-linejoin="round"/>
<path d="M258.365 103.985L266.596 98.5706" stroke="#FF3274" stroke-width="0.582496" stroke-linecap="round" stroke-linejoin="round"/>
<path d="M268.848 65.5358H265.031C264.597 65.5358 264.247 65.0416 264.247 64.4252V61.4182C264.247 60.8102 264.597 60.3076 265.031 60.3076H272.342C272.466 60.3148 272.585 60.3539 272.689 60.4211C272.793 60.4883 272.877 60.5812 272.934 60.6908" stroke="#FF3274" stroke-width="0.582496" stroke-linecap="round" stroke-linejoin="round"/>
<path d="M266.171 60.3158L266.221 65.5356" stroke="#FF3274" stroke-width="0.582496" stroke-linecap="round" stroke-linejoin="round"/>
<path d="M268.322 60.3881L268.347 62.9258L268.372 65.6079" stroke="#FF3274" stroke-width="0.582496" stroke-linecap="round" stroke-linejoin="round"/>
<path d="M270.73 60.3881L270.755 62.9258L270.78 65.6079" stroke="#FF3274" stroke-width="0.582496" stroke-linecap="round" stroke-linejoin="round"/>
<path d="M238.035 226.199L214.169 215.512" stroke="white" stroke-width="0.582496" stroke-linecap="round" stroke-linejoin="round"/>
<path d="M332.473 204.575L319.668 218.319L309.382 219.677" stroke="white" stroke-width="0.582496" stroke-linecap="round" stroke-linejoin="round"/>
<path fill-rule="evenodd" clip-rule="evenodd" d="M207.769 54.7796C206.004 54.0355 206.227 49.8541 208.103 48.252C209.979 46.65 214.692 45.2645 216.546 40.2723C217.218 38.9146 219.228 40.8915 219.754 44.265C220.046 52.2918 211.642 56.4122 207.769 54.7796Z" fill="#AADAF1"/>
<path d="M216.165 45.1172C215.884 46.8886 212.167 54.8738 204.661 56.9062" stroke="#72A5BD" stroke-width="0.582496" stroke-linecap="round" stroke-linejoin="round"/>
<path d="M255.813 45.8947C254.673 46.8359 253.739 48.5851 253.831 48.9488C254.02 49.7013 255.807 50.9757 255.807 50.9757C255.807 50.9757 256.21 55.8012 259.699 57.953C260.925 58.7083 262.732 58.786 264.383 58.5778" stroke="#C9C9C9" stroke-width="0.582496" stroke-linecap="round" stroke-linejoin="round"/>
<path d="M334.366 203.698C335.798 196.904 335.283 174.872 331.366 156.591" stroke="#72A5BD" stroke-width="0.582496" stroke-linecap="round" stroke-linejoin="round"/>
</g>
<defs>
<linearGradient id="paint0_linear_215_2278" x1="228.358" y1="255" x2="169.838" y2="-10.2254" gradientUnits="userSpaceOnUse">
<stop offset="0.158598" stop-color="#3F6A25"/>
<stop offset="1" stop-color="#A1E139" stop-opacity="0.63"/>
</linearGradient>
<clipPath id="clip0_215_2278">
<rect width="170.881" height="197.839" fill="white" transform="translate(27 26)"/>
</clipPath>
<clipPath id="clip1_215_2278">
<rect width="148.828" height="198.34" fill="white" transform="translate(204.37 30.66)"/>
</clipPath>
</defs>
</svg>
